<?xml version="1.0" encoding="utf-8"?>
<svg width="44px" height="44px" viewBox="242.174 -118.443 537.014 669.204" xmlns="http://www.w3.org/2000/svg">
  <path d="M 602.611 47.941 C 597.464 50.016, 592.726 53.747, 593.548 55.078 C 594.222 56.169, 617.476 69, 618.778 69 C 619.358 69, 619.983 69.373, 620.167 69.829 C 620.350 70.285, 625.615 73.306, 631.866 76.542 C 638.118 79.778, 643.919 83.473, 644.758 84.753 C 645.976 86.613, 646.180 89.234, 645.770 97.790 L 645.258 108.500 648.193 102.500 C 650.936 96.894, 651.099 95.908, 650.667 87.500 C 650.265 79.660, 649.729 77.533, 646.510 71 C 640.598 59, 635.559 53.159, 628.111 49.672 C 619.696 45.733, 609.763 45.059, 602.611 47.941 M 538.353 137.448 C 527.854 141.249, 517.909 150.481, 514.336 159.742 C 510.893 168.664, 512.290 197, 516.172 197 C 518.145 197, 539.395 208.131, 547.397 213.357 C 568.261 226.981, 586.969 246.800, 595.787 264.620 L 599.349 271.819 601.966 264.160 C 603.434 259.860, 604.261 255.842, 603.849 255 C 603.088 253.441, 581.235 227.134, 575.607 221 C 570.343 215.264, 555.384 195.393, 551.433 188.890 C 547.531 182.466, 546.006 174.113, 547.389 166.739 C 548.303 161.870, 553.501 154.441, 559.081 150.030 L 563.832 146.275 554.070 140.783 L 544.308 135.292 538.353 137.448 M 449.768 185.725 C 451.565 185.947, 454.265 185.943, 455.768 185.715 C 457.271 185.486, 455.800 185.304, 452.500 185.310 C 449.200 185.315, 447.971 185.502, 449.768 185.725 M 431.142 196.561 C 415.414 198.966, 391.933 206.533, 385.754 211.188 C 383.563 212.838, 383.558 212.892, 385.507 213.586 C 389.011 214.834, 393.954 219.011, 395.528 222.054 C 399.839 230.391, 396.377 246.372, 387.848 257.500 C 375.401 273.742, 357.486 282.956, 345.832 279.110 C 341.970 277.835, 337 271.096, 337 267.133 C 337 263.594, 336.008 265.062, 333.206 272.750 C 322.234 302.844, 323.723 333.265, 337.515 360.816 C 342.610 370.994, 348.517 379.520, 363.968 399 C 382.143 421.914, 388.556 432.583, 390.895 443.799 C 394.315 460.200, 389.871 473.686, 376.500 487.486 C 369.981 494.214, 362.864 500, 361.106 500 C 360.498 500, 360 500.378, 360 500.841 C 360 501.630, 350.828 506.450, 343 509.775 C 337.465 512.125, 327.066 514.920, 321.034 515.678 C 314.187 516.538, 297.733 516.552, 292.929 515.700 C 286.739 514.604, 278.232 512.196, 275.821 510.859 C 274.545 510.150, 273.275 509.536, 273 509.494 C 269.251 508.914, 259.314 500.935, 255.288 495.272 C 243.754 479.050, 245.392 456.225, 260.014 429.403 L 263.883 422.307 256.758 413.551 L 249.633 404.796 248.479 408.648 C 246.998 413.594, 244.629 418.416, 238.224 429.528 C 228.349 446.659, 223.608 461.700, 221.860 481.444 C 219.828 504.391, 222.441 513.679, 234.239 525.446 C 239.938 531.130, 243.544 533.694, 251 537.363 C 275.870 549.602, 300.394 550.586, 337.957 540.854 C 350.947 537.488, 360.550 533.689, 370 528.178 L 376.500 524.386 376.601 514.943 C 376.748 501.099, 379.933 494.189, 391.164 483.349 C 407.298 467.775, 430.648 460.698, 441.971 467.949 C 444.689 469.690, 442.462 469.925, 437.961 468.373 C 423.085 463.243, 396.154 477.688, 387.476 495.450 C 383.435 503.723, 383.193 510.439, 386.378 526 C 391.822 552.600, 392.692 567.173, 389.457 577.550 C 385.958 588.770, 374.554 597.369, 360 599.760 C 352.024 601.071, 335.910 600.455, 328.500 598.556 C 319.143 596.158, 303.941 588.671, 290.500 579.840 C 279.491 572.607, 259.078 561.589, 258.240 562.427 C 257.995 562.672, 256.603 562.407, 255.147 561.838 C 253.691 561.269, 248.984 560.819, 244.686 560.838 C 238.139 560.866, 235.832 561.358, 230.462 563.871 C 221.395 568.114, 214.686 574.757, 210.199 583.935 C 206.681 591.129, 206.500 591.992, 206.500 601.547 C 206.500 611.044, 206.692 611.973, 210 618.516 C 216.355 631.086, 227.607 639.894, 238.446 640.782 C 244.688 641.294, 248.374 638.822, 250.135 632.943 C 251.734 627.606, 250.577 625.386, 242.840 618.947 C 234.938 612.370, 231.295 607.808, 229.946 602.800 C 228.550 597.616, 230.080 593.015, 234.487 589.146 C 238.399 585.711, 242.519 584.574, 247.816 585.469 C 252.342 586.234, 267.599 594.406, 267.262 595.885 C 267.131 596.459, 267.581 596.719, 268.262 596.463 C 268.943 596.206, 273.100 598.934, 277.500 602.524 C 281.900 606.113, 287.975 610.787, 291 612.909 L 296.500 616.768 296.548 612.914 C 296.606 608.180, 299.536 604.755, 304.902 603.148 C 309.906 601.648, 311.619 601.698, 317.753 603.519 C 328.659 606.758, 338.570 618.438, 339.700 629.382 C 340.068 632.946, 339.859 635.465, 339.121 636.354 C 338.166 637.504, 339.466 638.122, 346.611 639.914 C 365.234 644.585, 379.181 643.484, 394.500 636.134 C 410.750 628.338, 420.061 614.786, 419.967 599.068 C 419.918 590.929, 416.671 572.570, 412.348 556 C 409.103 543.557, 408.561 539.939, 408.533 530.500 C 408.505 521.258, 408.849 518.745, 410.683 514.775 C 415.131 505.146, 423.578 497.288, 434.830 492.312 C 440.755 489.691, 442.558 489.749, 438.469 492.429 C 434.906 494.763, 427.417 506.715, 430.844 504.597 C 432.608 503.506, 439.296 506.273, 443.012 509.630 C 450.726 516.599, 452.140 528.293, 446.333 537.078 C 443.104 541.962, 433.751 548.449, 428.524 549.429 C 426.586 549.793, 425.007 550.633, 425.015 551.295 C 425.024 551.958, 425.932 556.076, 427.033 560.447 C 431.320 577.463, 448.602 602.522, 462.867 612.408 L 466.925 615.220 480.712 610.704 C 500.474 604.232, 501.650 604.145, 512.500 608.366 C 521.950 612.042, 535.653 618.076, 540.154 620.545 C 543.892 622.594, 544.933 622.436, 553.564 618.502 C 581.815 605.628, 594.532 584.202, 591.831 554.032 C 589.693 530.157, 576.344 513.072, 549.601 499.984 C 539.208 494.898, 531.570 492.999, 521.540 493.006 C 511.494 493.013, 506.913 494.259, 502.414 498.210 C 495.358 504.405, 493.080 513.339, 496.941 519.671 C 499.855 524.450, 507.190 528.391, 511.798 527.653 C 520.049 526.333, 522.853 514.762, 516.470 508.379 C 513.103 505.012, 515.027 504.499, 523.581 506.482 C 540.555 510.419, 558.101 525.840, 563.343 541.428 C 571.288 565.055, 551.228 590.983, 519.956 597.509 C 514.082 598.735, 500.908 598.696, 496.668 597.441 C 493.202 596.414, 483.532 591.649, 483.167 590.787 C 482.983 590.354, 482.297 590, 481.642 590 C 479.872 590, 469.773 580.133, 466.544 575.250 C 463.650 570.872, 462.231 570.169, 460.264 572.136 C 458.458 573.942, 451.028 574.065, 448.383 572.331 C 444.426 569.739, 442.146 565.005, 442.567 560.256 C 443.240 552.657, 446.814 548.042, 453.250 546.459 C 455.519 545.902, 456.002 545.233, 456.013 542.642 C 456.043 535.527, 459.997 520.533, 463.841 512.957 C 466.470 507.775, 468.017 503.162, 468.489 499.095 C 469.327 491.872, 470.999 490.977, 471.001 497.750 C 471.003 504.561, 473.461 517.519, 476.070 524.474 C 481.047 537.742, 489.915 547.501, 504 555.210 C 508.301 557.564, 525.868 563.536, 526.433 562.836 C 527.689 561.276, 529.201 554.104, 529.666 547.500 C 530.308 538.363, 529.066 530.349, 525.847 522.866 L 523.617 517.682 522.559 520.591 C 520.017 527.574, 516.054 531, 510.518 531 C 504.527 531, 495.684 525.041, 492.415 518.800 C 488.942 512.171, 491.830 501.171, 498.811 494.437 C 502.729 490.657, 502.790 490.495, 501.339 487.689 C 499.349 483.840, 500.351 483.145, 503.199 486.398 L 505.500 489.027 512.815 487.290 C 519.356 485.736, 520.888 484.875, 527.315 479.144 C 540.350 467.519, 552.088 455.686, 551.287 454.978 C 549.775 453.641, 538.606 452, 531.017 452 C 511.247 452, 497.918 458.187, 492.861 469.711 C 490.173 475.834, 489.345 473.765, 491.507 466.330 C 495.881 451.282, 510.810 429.938, 523.912 420 C 525.724 418.625, 528.250 416.600, 529.525 415.500 C 530.800 414.400, 534.181 411.700, 537.039 409.500 C 547.458 401.480, 550.673 398.684, 559.836 389.677 C 573.081 376.657, 583.703 360.356, 589.471 344.201 C 594.398 330.398, 595.301 325.163, 595.284 310.500 C 595.249 280.419, 586.653 260.922, 563.626 238.689 C 555.209 230.563, 540.420 219.710, 532 215.479 C 530.075 214.512, 528.275 213.421, 528 213.054 C 526.338 210.839, 500.224 201.378, 489.500 199.106 C 486.750 198.523, 483.150 197.732, 481.500 197.347 C 476.503 196.182, 475.138 196.089, 457 195.679 C 445.819 195.426, 436.482 195.745, 431.142 196.561 M 428.662 206.549 C 414.358 211.795, 404.966 227.526, 411.043 236.061 C 413.729 239.832, 418.063 240.934, 425.965 239.853 C 436.889 238.359, 450.761 228.784, 452.597 221.471 C 453.516 217.807, 452.395 212.100, 450.293 209.738 C 446.181 205.119, 436.466 203.686, 428.662 206.549 M 201.291 320.250 C 197.014 324.928, 195.625 329.202, 195.200 339 C 194.388 357.710, 198.457 363.468, 216.249 368.787 C 220.388 370.025, 222.740 370.359, 222.331 369.652 C 220.797 367, 215.391 360.219, 211.760 356.391 C 207.483 351.885, 207.977 354.371, 205.380 324.250 C 205.083 320.813, 204.505 318, 204.095 318 C 203.684 318, 202.423 319.012, 201.291 320.250 M 410.781 375.939 C 398.986 380.549, 392.502 390.066, 392.613 402.606 C 392.665 408.527, 393.147 410.575, 395.393 414.408 C 403.664 428.521, 425.590 429.510, 438.161 416.336 C 442.939 411.330, 445.139 405.818, 445.120 398.902 C 445.100 391.158, 442.674 385.791, 436.808 380.517 C 429.320 373.785, 420.333 372.204, 410.781 375.939 M 466.994 382.934 C 455.553 386.415, 447.870 394.958, 446.432 405.801 C 444.199 422.638, 453.548 433.333, 470.500 433.333 C 476.404 433.333, 478.855 432.816, 483.331 430.627 C 500.544 422.205, 504.363 400.770, 490.870 388.312 C 485.180 383.059, 474.495 380.652, 466.994 382.934 M 629.364 412.476 C 619.543 414.258, 609.318 419.809, 602.711 426.945 C 598.342 431.665, 594.165 439.499, 595.374 440.707 C 596.185 441.519, 619.040 435.440, 622.992 433.362 C 628.693 430.364, 635.889 430.268, 644.228 433.077 C 661.461 438.882, 673.218 453.039, 676.591 472.044 C 680.836 495.974, 669.444 519.887, 647.591 532.913 C 639.134 537.954, 624.225 541.814, 610.169 542.601 C 603.751 542.961, 598.434 543.310, 598.352 543.378 C 598.271 543.445, 598.648 546.200, 599.191 549.500 C 599.733 552.800, 599.903 558.967, 599.569 563.205 L 598.961 570.910 604.230 570.307 C 611.024 569.530, 632.357 564.004, 642 560.524 C 660.261 553.933, 676.406 544.503, 685.104 535.346 C 700.072 519.589, 706.058 494.405, 701.506 466.340 C 699.009 450.943, 691.288 435.982, 681.199 426.990 C 673.309 419.958, 659.602 413.472, 649.709 412.089 C 640.322 410.777, 638.537 410.811, 629.364 412.476" stroke="none" fill="#bbc9d8" fill-rule="evenodd" transform="matrix(1, 0, 0, 1, 56.689697, -157.795532)"/>
  <path d="M 0 373.501 L 0 747.002 450.250 746.751 L 900.500 746.500 900.751 373.250 L 901.003 0 450.501 0 L 0 0 0 373.501 M 0.495 374 C 0.495 579.425, 0.610 663.462, 0.750 560.750 C 0.890 458.037, 0.890 289.962, 0.750 187.250 C 0.610 84.537, 0.495 168.575, 0.495 374 M 610.500 41.415 C 609.950 41.628, 607.025 42.558, 604 43.480 C 600.329 44.599, 597.088 46.529, 594.256 49.281 L 590.012 53.404 585.342 51.136 C 582.774 49.888, 578.548 48.615, 575.950 48.308 C 570.500 47.662, 551.378 49.384, 539 51.635 C 517.935 55.466, 515.904 57.089, 512.343 72.936 C 510.165 82.625, 510.070 83.399, 509.394 97 L 508.772 109.500 511.877 112.619 C 514.814 115.570, 531.670 127.262, 536.942 130.005 C 539.268 131.216, 539.003 131.400, 531.354 133.888 C 523.412 136.471, 516.139 140.623, 512.764 144.500 C 503.282 155.390, 500.422 171.788, 505.438 186.500 C 506.751 190.350, 507.708 193.619, 507.565 193.764 C 507.422 193.910, 504.423 193.140, 500.902 192.052 C 470.263 182.593, 428.234 183.625, 398.500 194.565 C 385.314 199.417, 368.702 209.131, 359 217.664 C 350.903 224.786, 338 239.407, 338 241.461 C 338 241.831, 336.931 243.566, 335.625 245.317 C 331.173 251.282, 322.473 271.157, 320.442 280 C 320.379 280.275, 320.064 281.175, 319.742 282 C 319.419 282.825, 318.824 285.300, 318.417 287.500 C 318.011 289.700, 317.484 292.175, 317.246 293 C 317.008 293.825, 316.767 302.600, 316.710 312.500 C 316.619 328.272, 316.885 331.514, 318.855 338.694 C 322 350.151, 324.954 357.254, 330.347 366.333 C 332.906 370.641, 335 374.394, 335 374.673 C 335 374.952, 337.137 377.725, 339.750 380.835 C 345.046 387.137, 363.188 408.220, 363.987 409 C 368.359 413.265, 380.827 431.380, 383.680 437.613 C 387.369 445.670, 387.974 457.475, 385.090 465.095 C 380.551 477.087, 356.953 495.396, 337 502.407 C 324.704 506.727, 312.293 508.201, 298.749 506.949 C 282.345 505.432, 272.127 501.120, 263.772 492.188 C 257.410 485.386, 255.871 481.333, 255.253 469.745 C 254.419 454.131, 258.096 442.663, 271.682 418.497 C 280.972 401.974, 282.279 398.088, 281.789 388.455 C 281.463 382.045, 280.728 379.015, 278.173 373.555 C 276.409 369.786, 275.086 366.615, 275.233 366.509 C 275.587 366.253, 292.042 357.471, 299 353.824 C 305.758 350.282, 307.380 349.060, 308.721 346.500 C 309.308 345.378, 309.929 335.735, 310.134 324.546 L 310.500 304.592 302 300.866 C 272.395 287.889, 267.801 287.249, 248 293.353 C 233.316 297.879, 207.825 306.856, 206.756 307.877 C 206.347 308.268, 205.911 309.806, 205.788 311.294 C 205.633 313.165, 205.001 314, 203.739 314 C 202.735 314, 199.743 316.031, 197.090 318.512 C 190.871 324.329, 188.533 331.028, 188.544 343 C 188.553 352.983, 190.775 360.536, 195.179 365.551 C 198.371 369.186, 208.087 374.238, 215.457 376.094 C 217.975 376.727, 220.278 377.641, 220.576 378.123 C 220.874 378.605, 222.009 379, 223.099 379 C 228.863 379, 243.191 389.901, 245.942 396.380 C 248.192 401.677, 247.024 408.605, 242.683 415.710 C 240.932 418.576, 236.256 426.226, 232.290 432.710 C 224.507 445.438, 220.026 455.669, 216.926 467.790 C 214.610 476.843, 214.268 479.255, 213.418 492.500 C 211.823 517.331, 223.658 535.800, 248.322 546.971 C 255.630 550.281, 258.147 551.318, 259.500 551.577 C 260.050 551.683, 260.837 551.877, 261.250 552.010 C 261.663 552.142, 262.337 552.313, 262.750 552.390 C 263.163 552.467, 263.960 552.824, 264.521 553.183 C 265.083 553.542, 267.351 554.105, 269.561 554.435 C 275.676 555.347, 277.918 555.831, 278.938 556.462 C 280.793 557.608, 304.729 557.052, 314 555.648 C 333.656 552.670, 343.994 549.315, 365.859 538.817 C 372.656 535.554, 378.318 533.022, 378.442 533.192 C 379.128 534.133, 381.010 555.690, 381 562.500 C 380.980 576.646, 377.973 582.153, 367.322 587.550 C 361.679 590.409, 361.070 590.498, 347.500 590.447 C 334.240 590.397, 333.053 590.225, 325.046 587.193 C 316.668 584.020, 295.274 572.750, 289.500 568.469 C 287.850 567.245, 283.125 564.416, 279 562.182 C 249.663 546.294, 223.086 551.024, 206.539 575.080 C 200.489 583.874, 198.630 590.150, 198.561 602 C 198.502 612.126, 198.631 612.768, 202.184 620.034 C 207.107 630.104, 213.112 637.256, 221.102 642.568 C 229.289 648.010, 235.587 649.547, 243.617 648.063 C 251.931 646.526, 256.897 641.396, 258.537 632.652 C 259.637 626.793, 256.928 621.991, 249.408 616.471 C 237.578 607.785, 233.083 600.502, 235.831 594.472 C 237.462 590.892, 242.511 588.698, 247.916 589.220 C 255.209 589.925, 268.731 596.828, 275.088 603.091 C 282.234 610.131, 297.395 623.011, 306.385 629.679 C 314.719 635.861, 339.115 648.333, 345 649.422 C 346.375 649.676, 348.984 650.335, 350.799 650.886 C 352.613 651.437, 359.813 651.859, 366.799 651.823 C 376.991 651.771, 381.002 651.309, 387.104 649.480 C 404.066 644.399, 418.178 633.801, 424.732 621.223 C 429.029 612.978, 430.262 607.346, 429.856 597.835 L 429.500 589.500 434 594.004 C 441.907 601.917, 452.208 610.407, 457.736 613.567 L 463.101 616.633 458.572 618.963 C 456.080 620.245, 453.818 622.015, 453.544 622.896 C 451.913 628.152, 453.850 649.972, 456.616 657.500 C 458.802 663.448, 467.986 670.550, 502.313 692.837 C 518.503 703.349, 524.928 707, 527.239 707 C 529.462 707, 536.891 703.071, 553.235 693.250 C 565.821 685.688, 576.943 678.741, 577.950 677.813 C 579.520 676.366, 579.887 673.738, 580.520 659.380 C 580.951 649.611, 580.879 641.981, 580.347 641.067 C 579.845 640.205, 572.482 636.041, 563.984 631.814 C 548.821 624.271, 548.589 624.107, 551.517 623.003 C 562.551 618.843, 569.648 614.422, 576.966 607.146 C 581.197 602.941, 586.112 597.356, 587.888 594.735 C 591.807 588.951, 597 578.653, 597 576.663 C 597 574.567, 598.793 574.147, 608.674 573.930 C 618.931 573.704, 631.834 571.815, 638.447 569.570 C 640.990 568.706, 643.738 568, 644.555 568 C 645.372 568, 648.843 566.843, 652.270 565.429 C 655.696 564.015, 659.318 562.685, 660.317 562.474 C 661.926 562.133, 675.285 554.994, 680.429 551.726 C 688.287 546.733, 698.222 535.994, 702.493 527.875 C 709.589 514.384, 713.457 496.264, 712.292 481.971 C 711.912 477.312, 711.616 471.925, 711.635 470 C 711.654 468.075, 711.776 459.805, 711.906 451.621 C 712.036 443.438, 711.773 436.404, 711.321 435.989 C 710.870 435.575, 706.912 434.188, 702.527 432.906 C 695.598 430.881, 693.811 429.852, 688.871 425.038 C 682.575 418.904, 672.165 412.290, 664.500 409.555 C 657.799 407.164, 639.013 406.313, 630.707 408.023 C 627.293 408.726, 621.125 410.874, 617 412.795 C 607.550 417.197, 596.957 427.517, 592.500 436.665 C 589.680 442.453, 589.217 442.893, 584.778 444.004 C 580.483 445.079, 579.996 445.506, 579.394 448.713 C 578.674 452.551, 579.618 480.640, 580.630 485.500 C 581.243 488.440, 584.586 493, 586.130 493 C 586.560 493, 588.524 494.095, 590.496 495.433 C 592.468 496.771, 596.200 498.660, 598.790 499.631 C 601.381 500.603, 603.725 501.670, 604 502.003 C 604.275 502.336, 609 504.311, 614.500 506.392 C 620 508.473, 625.921 511.047, 627.658 512.112 C 630.318 513.744, 631.501 513.896, 635.158 513.075 C 639.719 512.051, 646.968 509.347, 655.723 505.404 C 658.595 504.110, 662.086 502.765, 663.481 502.415 L 666.017 501.779 663.759 506.009 C 660.109 512.847, 648.791 523.521, 641.499 527 C 633.080 531.018, 621.627 533.893, 610.500 534.782 C 598.612 535.731, 595.247 535.354, 594.497 532.989 C 594.166 531.949, 591.740 527.813, 589.106 523.799 C 577.028 505.397, 556.455 491.948, 533.196 487.249 L 523.994 485.390 537.247 474.339 C 558.761 456.401, 590.422 426.131, 602.975 411.500 C 612.332 400.593, 625.206 381.699, 628.866 373.500 C 630.544 369.739, 635.013 357.437, 635.518 355.185 C 639.836 335.931, 640.504 326.240, 638.457 312.500 C 635.944 295.631, 635.458 293.935, 628.704 278.500 C 621.474 261.975, 606.322 241.781, 589.140 225.766 C 573.142 210.856, 554.367 190.545, 551.554 185.105 C 549.571 181.270, 549.565 173.634, 551.539 167.839 C 553.250 162.817, 559.020 156.275, 565.151 152.405 C 568.538 150.267, 569.634 150.026, 572.084 150.879 C 574.175 151.608, 576.333 151.526, 579.747 150.587 C 582.361 149.868, 588.100 148.523, 592.500 147.597 C 609.420 144.037, 624.886 139.789, 633.758 136.266 C 638.815 134.258, 640.123 133.273, 640.571 131.140 C 640.876 129.688, 641.352 127.403, 641.629 126.062 C 641.906 124.721, 644.465 121.100, 647.316 118.015 C 654.907 109.802, 658.248 102.364, 658.788 92.477 C 659.354 82.136, 656.489 73.463, 648.582 61.580 C 639.174 47.441, 631.295 42.163, 618.500 41.429 C 614.650 41.208, 611.050 41.201, 610.500 41.415 M 411.994 377.934 C 401.374 381.165, 395.975 388.928, 396.022 400.899 C 396.072 413.759, 403.545 421.012, 416.718 420.990 C 426.831 420.973, 435.571 415.248, 439.117 406.318 C 440.884 401.868, 440.405 392.713, 438.176 388.346 C 435.658 383.413, 431.909 379.921, 431.229 381.875 C 429.349 387.274, 421.671 388.762, 417.455 384.545 C 414.744 381.835, 414.384 380.016, 416.200 378.200 C 417.608 376.792, 416.068 376.695, 411.994 377.934 M 464.239 386.335 C 455.011 389.681, 449.751 397.881, 449.685 409.021 C 449.612 421.439, 455.912 428.018, 468.654 428.829 C 476.771 429.346, 482.775 427.053, 487.921 421.470 C 492.159 416.872, 493.986 411.984, 493.994 405.218 C 494.002 399.664, 492.105 395.259, 487.893 391.046 C 484.896 388.049, 484.459 387.878, 484.147 389.577 C 483.519 392.994, 480.882 395, 477.019 395 C 472.335 395, 468.511 391.341, 469.235 387.551 C 469.777 384.716, 469.135 384.559, 464.239 386.335 M 427.841 498.767 C 421.241 503.120, 414.912 513.312, 413.506 521.854 C 413.112 524.248, 413.140 529.198, 413.568 532.854 L 414.347 539.500 415.509 533.500 C 418.092 520.161, 422.971 507.827, 428.661 500.250 C 431.479 496.497, 431.427 496.402, 427.841 498.767 M 520 509.034 C 529.153 516.317, 547 526.263, 547 524.081 C 547 522.968, 538.751 516.119, 533.851 513.163 C 530.639 511.226, 519.699 506.962, 518.093 507.022 C 517.767 507.034, 518.625 507.940, 520 509.034 M 466.297 513 C 461.119 524.606, 459.382 539.880, 461.968 551.066 C 464.976 564.073, 477.077 579.145, 489 584.733 C 505.508 592.469, 523.456 590.334, 539.750 578.696 C 542.087 577.027, 544 575.398, 544 575.077 C 544 574.756, 542.087 574.422, 539.750 574.336 C 536.153 574.203, 529.815 573.277, 520.500 571.522 C 516.923 570.849, 508.504 568.326, 506.477 567.320 C 495.663 561.953, 492.285 560.043, 489.109 557.500 C 478.405 548.929, 472.202 536.115, 469.504 517 L 468.304 508.500 466.297 513" stroke="none" fill-rule="evenodd" transform="matrix(1, 0, 0, 1, 56.689697, -157.795532)" style="fill: none;"/>
  <path d="M 566 240.564 C 570.125 244.947, 573.682 248.420, 573.904 248.280 C 574.466 247.926, 566.232 239.117, 562 235.547 C 560.075 233.923, 561.875 236.180, 566 240.564 M 603.218 261.773 C 602.100 264.923, 600.887 268.519, 600.521 269.765 C 600.155 271.010, 599.527 271.826, 599.125 271.578 C 598.724 271.329, 599.405 274.137, 600.639 277.817 C 603.499 286.345, 605.048 295.990, 605.487 308 C 605.828 317.348, 604.172 332.098, 602.230 337 C 601.685 338.375, 601.220 339.845, 601.196 340.267 C 601.034 343.076, 599.334 348.386, 596.870 353.775 C 595.291 357.226, 594 360.489, 594 361.025 C 594 361.561, 593.550 362, 593 362 C 592.450 362, 592 362.637, 592 363.417 C 592 364.196, 591.663 364.983, 591.250 365.167 C 590.147 365.657, 586.398 373.061, 585.616 376.291 C 585.245 377.826, 584.554 378.842, 584.080 378.549 C 583.606 378.257, 582.465 379.168, 581.543 380.575 C 578.445 385.303, 576.540 387.460, 567 397.042 C 561.775 402.290, 554.981 408.441, 551.903 410.710 C 548.824 412.980, 545.562 415.581, 544.653 416.490 C 543.744 417.399, 543 417.851, 543 417.495 C 543 417.138, 541.835 418.231, 540.411 419.923 C 538.987 421.615, 537.225 423, 536.494 423 C 535.764 423, 535.017 423.362, 534.833 423.805 C 534.650 424.248, 529.962 428.033, 524.415 432.216 C 514.504 439.692, 502.719 451.979, 500.919 456.713 C 500.416 458.037, 499.635 458.893, 499.185 458.615 C 498.735 458.336, 497.544 459.547, 496.538 461.304 L 494.709 464.500 498.105 461.358 C 502.223 457.546, 507.813 454.714, 514.500 453.052 C 521.052 451.424, 542.056 451.650, 548.730 453.421 L 553.960 454.808 567.334 440.990 C 602.534 404.619, 619.753 378.483, 627.048 350.353 C 630.063 338.730, 630.723 319.561, 628.496 308.321 C 624.923 290.291, 617.918 273.765, 607.915 259.773 L 605.251 256.046 603.218 261.773 M 325.336 316 C 325.336 320.125, 325.513 321.813, 325.728 319.750 C 325.944 317.688, 325.944 314.313, 325.728 312.250 C 325.513 310.188, 325.336 311.875, 325.336 316 M 216.788 360.596 C 217.350 361.643, 219.197 364.241, 220.891 366.369 C 222.585 368.497, 223.760 370.580, 223.502 370.997 C 223.244 371.415, 224.263 372.005, 225.766 372.309 C 229.788 373.122, 240.336 380.262, 243.347 384.211 C 246.536 388.392, 249 395.098, 249 399.596 C 249 402.222, 250.427 404.717, 255.647 411.220 C 259.303 415.774, 262.821 420.077, 263.465 420.782 C 264.390 421.796, 265.487 420.739, 268.693 415.746 C 278.160 401.001, 280.482 393.684, 278.871 383.677 C 278.087 378.814, 273.800 368, 272.656 368 C 272.485 368, 268.105 369.857, 262.922 372.127 C 249.336 378.077, 247.814 377.945, 233.954 369.619 C 227.654 365.834, 220.984 361.827, 219.132 360.714 C 215.915 358.782, 215.810 358.777, 216.788 360.596 M 579.966 434.750 L 574.500 440.500 580.250 435.034 C 583.413 432.028, 586 429.440, 586 429.284 C 586 428.542, 585.044 429.408, 579.966 434.750 M 543.966 463.750 L 538.500 469.500 544.250 464.034 C 547.413 461.028, 550 458.440, 550 458.284 C 550 457.542, 549.044 458.408, 543.966 463.750 M 522.470 518.049 C 522.101 518.645, 522.070 519.403, 522.400 519.733 C 522.730 520.063, 523 519.782, 523 519.108 C 523 516.526, 524.959 519.272, 527.039 524.769 C 530.329 533.464, 531.165 542.399, 529.554 551.651 C 528.803 555.968, 527.880 560.469, 527.503 561.653 C 526.846 563.715, 527.189 563.833, 535.659 564.464 C 540.521 564.826, 546.228 565.286, 548.340 565.486 C 552.060 565.838, 552.244 565.703, 554.252 561.174 C 556.977 555.029, 557.215 543.353, 554.746 536.956 C 553.171 532.875, 552.532 532.290, 548.467 531.202 C 541.929 529.454, 531.590 524.197, 527.057 520.317 C 524.591 518.206, 522.892 517.366, 522.470 518.049 M 682.966 537.750 L 677.500 543.500 683.250 538.034 C 688.592 532.956, 689.458 532, 688.716 532 C 688.560 532, 685.972 534.587, 682.966 537.750" stroke="none" fill="#8999a9" fill-rule="evenodd" transform="matrix(1, 0, 0, 1, 56.689697, -157.795532)"/>
  <path d="M 428.662 206.549 C 414.358 211.795, 404.966 227.526, 411.043 236.061 C 413.729 239.832, 418.063 240.934, 425.965 239.853 C 436.889 238.359, 450.761 228.784, 452.597 221.471 C 453.516 217.807, 452.395 212.100, 450.293 209.738 C 446.181 205.119, 436.466 203.686, 428.662 206.549 M 383.080 212.750 C 382.519 213.713, 382.047 214.152, 382.030 213.727 C 381.993 212.773, 378.232 215.111, 370.944 220.619 C 357.888 230.487, 347.746 242.758, 338.890 259.406 C 335.892 265.042, 336.201 268.734, 340.156 274.548 C 348.290 286.503, 372.160 277.971, 387.848 257.500 C 396.377 246.372, 399.839 230.391, 395.528 222.054 C 393.986 219.071, 389.019 214.832, 385.687 213.655 C 384.689 213.302, 384.153 212.561, 384.496 212.007 C 384.838 211.453, 384.889 211, 384.609 211 C 384.329 211, 383.641 211.787, 383.080 212.750 M 430.065 504.960 C 427.351 506.637, 424.179 522.593, 424.160 534.665 C 424.137 549.362, 424.398 550.276, 428.380 549.472 C 433.549 548.428, 442.290 542.497, 445.819 537.638 C 451.698 529.545, 451.258 518.780, 444.746 511.363 C 440.264 506.258, 433.053 503.113, 430.065 504.960 M 450.034 547.738 C 440.871 552.397, 439.905 566.777, 448.383 572.331 C 451.159 574.150, 457.296 573.885, 461.225 571.776 C 463.699 570.448, 463.817 570.138, 462.512 568.407 C 460.761 566.084, 457.215 554.806, 456.725 550.001 C 456.302 545.843, 454.776 545.327, 450.034 547.738 M 304.276 603.326 C 297.256 605.882, 293.693 613.772, 297.821 617.618 C 304.563 623.900, 328.795 635.852, 335.627 636.266 L 339.500 636.500 339.407 630.307 C 339.329 625.140, 338.749 623.170, 335.907 618.416 C 331.726 611.424, 324.555 605.539, 317.753 603.519 C 311.792 601.749, 308.728 601.705, 304.276 603.326" stroke="none" fill="#9cb5ce" fill-rule="evenodd" transform="matrix(1, 0, 0, 1, 56.689697, -157.795532)"/>
  <path d="M 606.500 43.392 C 600.655 45.231, 597.948 46.808, 593.753 50.819 L 590.005 54.401 585.253 52.087 C 579.096 49.089, 571.791 48.481, 558.911 49.892 C 532.816 52.752, 520.633 55.965, 517.325 60.857 C 514.564 64.939, 511.365 78.855, 510.510 90.500 C 510.146 95.450, 509.649 101.216, 509.405 103.313 C 508.616 110.086, 511.006 112.468, 532.386 126.227 C 537.402 129.455, 540.677 132.143, 539.892 132.388 C 539.127 132.627, 536.250 133.346, 533.500 133.987 C 527.115 135.475, 517.792 140.433, 513.904 144.409 C 512.241 146.109, 509.445 150.417, 507.690 153.982 C 504.649 160.161, 504.502 161.005, 504.550 171.982 C 504.592 181.560, 504.977 184.406, 506.837 188.880 C 508.067 191.839, 508.874 194.459, 508.630 194.703 C 508.387 194.946, 506.458 194.632, 504.344 194.005 C 485.499 188.412, 473.734 186.767, 452.500 186.759 C 438.342 186.754, 429.934 187.599, 416.500 190.380 C 393.819 195.074, 370.045 207.548, 354.198 223.071 C 346.600 230.513, 339 239.875, 339 241.791 C 339 242.401, 338.408 243.260, 337.684 243.700 C 336.039 244.699, 327.369 261.768, 325.379 267.924 C 324.565 270.441, 323.487 273.400, 322.984 274.500 C 321.754 277.189, 319.005 288.302, 318.176 293.940 C 317.808 296.448, 317.505 305.475, 317.503 314 C 317.500 327.168, 317.859 330.854, 319.888 338.500 C 321.202 343.450, 322.901 348.738, 323.664 350.250 C 324.427 351.763, 324.807 353, 324.509 353 C 323.592 353, 328.922 362.898, 334.425 371.414 C 339.399 379.111, 346.011 387.475, 355.835 398.500 C 358.286 401.250, 361.488 404.850, 362.952 406.500 C 370.067 414.521, 379.340 427.881, 383.204 435.678 C 387.258 443.856, 387.500 444.829, 387.500 452.923 C 387.500 460.087, 387.071 462.406, 384.897 467 C 381.943 473.242, 372.855 482.731, 364.211 488.597 C 361.070 490.729, 358.275 492.740, 358 493.067 C 356.565 494.774, 342.856 501.301, 335.227 503.911 C 314.564 510.980, 287.933 509.486, 272.242 500.378 C 266.255 496.903, 260.315 490.445, 257.177 484 C 254.748 479.010, 254.500 477.434, 254.500 467 C 254.500 457.489, 254.925 454.203, 256.957 448 C 258.308 443.875, 259.433 440.050, 259.457 439.500 C 259.480 438.950, 259.751 438.275, 260.059 438 C 260.366 437.725, 262.339 434.125, 264.444 430 C 266.548 425.875, 269.050 421.375, 270.003 420 C 273.887 414.399, 280.275 399.552, 280.896 394.685 C 281.822 387.433, 280.408 379.519, 276.950 372.590 C 275.327 369.340, 274 366.564, 274 366.422 C 274 366.157, 287.571 358.698, 296.500 354.056 C 305.589 349.331, 307.939 347.546, 308.427 345 C 308.690 343.625, 309.202 334.152, 309.565 323.950 L 310.224 305.399 303.140 302.134 C 292.092 297.042, 270.911 290.008, 266.612 290.004 C 262.304 290, 230.245 299.361, 218.604 304.022 C 214.514 305.660, 210.711 307, 210.155 307 C 208.314 307, 206 310.104, 206 312.571 C 206 314.319, 205.449 315, 204.035 315 C 201.079 315, 195.206 320.675, 192.229 326.410 C 189.850 330.991, 189.582 332.600, 189.547 342.500 C 189.516 351.664, 189.862 354.251, 191.623 358 C 195.850 367.001, 200.414 370.208, 216.490 375.474 C 235.605 381.735, 245.123 389.261, 248.140 400.500 C 248.702 402.594, 248.778 401.990, 248.390 398.500 C 247.593 391.327, 244.968 386.104, 239.754 381.321 C 233.980 376.024, 229.983 374.016, 217.253 370.021 C 205.355 366.287, 201.717 364.096, 197.537 358.149 C 194.558 353.910, 194.500 353.597, 194.500 341.664 C 194.500 328.545, 195.355 325.571, 200.801 319.750 C 204.393 315.911, 205.984 316.213, 206.074 320.750 C 206.115 322.813, 206.297 325.400, 206.477 326.500 C 206.658 327.600, 207.062 332.645, 207.374 337.712 C 208.366 353.777, 208.406 353.844, 222 361.739 C 227.225 364.773, 234.276 369.027, 237.669 371.193 C 241.062 373.358, 245.112 375.479, 246.669 375.906 C 249.854 376.778, 256.353 374.882, 264.739 370.632 C 272.405 366.748, 273.271 367.012, 276.609 374.250 C 279.072 379.591, 279.490 381.736, 279.483 389 C 279.475 398.696, 279.794 397.928, 266.641 419.880 C 252.413 443.627, 246.914 461.290, 249.053 476.373 C 250.312 485.249, 253.750 492.312, 259.866 498.584 C 266.260 505.141, 266.560 505.343, 275.431 509.036 C 284.132 512.658, 288.513 513.901, 295 514.587 C 316.308 516.842, 334.034 513.697, 351.280 504.603 C 362.834 498.510, 362.745 498.565, 367.779 494.380 C 383.387 481.401, 391.013 468.224, 390.988 454.275 C 390.959 437.808, 385.051 426.615, 359.435 394.500 C 349.182 381.646, 337 364.124, 337 362.232 C 337 361.799, 336.224 360.337, 335.275 358.982 C 334.326 357.627, 333.425 355.703, 333.273 354.706 C 333.121 353.709, 332.233 351.455, 331.301 349.697 C 329.586 346.463, 329.426 345.943, 329.152 342.691 C 329.069 341.696, 328.663 341.091, 328.250 341.345 C 327.837 341.600, 327.456 340.614, 327.402 339.155 C 327.349 337.695, 326.756 332.969, 326.086 328.654 C 324.711 319.803, 324.102 297.942, 325.250 298.654 C 325.663 298.909, 326 297.973, 326 296.573 C 326 294.216, 327.589 286.485, 328.790 283 C 329.074 282.175, 329.394 281.050, 329.501 280.500 C 329.608 279.950, 329.820 279.163, 329.973 278.750 C 330.125 278.337, 330.363 277.550, 330.500 277 C 330.637 276.450, 330.863 275.775, 331 275.500 C 331.137 275.225, 331.345 274.663, 331.461 274.250 C 331.793 273.074, 333.084 270.006, 336.059 263.322 C 337.572 259.923, 338.553 256.886, 338.238 256.572 C 337.924 256.257, 338.192 256, 338.833 256 C 339.475 256, 340 255.325, 340 254.500 C 340 253.675, 340.450 253, 341 253 C 341.550 253, 342 252.380, 342 251.622 C 342 250.865, 342.675 249.685, 343.500 249 C 344.325 248.315, 345 246.910, 345 245.878 C 345 244.845, 345.563 243.997, 346.250 243.993 C 346.938 243.989, 348.523 242.484, 349.774 240.647 C 351.024 238.810, 353.274 235.918, 354.774 234.221 C 356.273 232.523, 358.225 230.316, 359.110 229.317 C 359.996 228.318, 362.632 225.925, 364.969 224 C 367.305 222.075, 369.811 219.938, 370.537 219.250 C 371.263 218.563, 372.101 218, 372.399 218 C 373.240 218, 382.458 211.595, 382.833 210.750 C 383.017 210.338, 384.003 210, 385.024 210 C 386.046 210, 387.110 209.631, 387.389 209.180 C 387.667 208.729, 391.182 207.055, 395.198 205.460 C 399.214 203.865, 402.831 202.097, 403.235 201.530 C 403.639 200.964, 403.976 200.816, 403.985 201.202 C 403.993 201.588, 406.137 201.231, 408.750 200.409 C 416.721 197.900, 423.777 196.423, 435 194.913 C 442.867 193.855, 465.410 193.656, 470.518 194.599 C 472.158 194.902, 475.089 195.254, 477.031 195.381 C 478.973 195.508, 481.066 195.923, 481.681 196.303 C 482.296 196.683, 483.857 196.966, 485.150 196.932 C 486.442 196.898, 490.200 197.610, 493.500 198.514 C 496.800 199.419, 500.175 200.285, 501 200.440 C 502.719 200.763, 505.211 201.661, 509.500 203.502 C 511.150 204.210, 513.962 205.097, 515.750 205.474 C 517.538 205.851, 519 206.600, 519 207.138 C 519 207.677, 519.450 207.840, 520 207.500 C 520.550 207.160, 521 207.286, 521 207.781 C 521 208.275, 522.800 209.274, 525 210 C 527.200 210.726, 529 211.698, 529 212.160 C 529 212.622, 529.455 213, 530.011 213 C 530.567 213, 535.015 215.470, 539.896 218.490 C 548.075 223.549, 552.327 226.694, 557.148 231.250 C 558.167 232.213, 559.337 233.003, 559.750 233.007 C 560.500 233.013, 568.742 241.377, 574.607 248.081 C 582.454 257.051, 589.981 270.662, 592.535 280.500 C 596.356 295.221, 597.743 313.280, 595.915 324.500 C 594.796 331.372, 589.189 349.762, 587.532 352 C 586.921 352.825, 585.610 355.300, 584.619 357.500 C 583.628 359.700, 579.873 365.917, 576.275 371.316 C 567.190 384.948, 554.581 397.083, 528 417.775 C 514.486 428.295, 502.810 442.727, 495.925 457.420 C 490.929 468.081, 490.892 470.196, 495.844 462.005 C 499.907 455.286, 522.399 431, 524.559 431 C 525.257 431, 527.408 429.466, 529.338 427.592 C 531.268 425.717, 533.782 423.887, 534.924 423.524 C 536.066 423.162, 537 422.221, 537 421.433 C 537 420.645, 537.394 420.113, 537.876 420.250 C 538.358 420.388, 540.046 419.368, 541.626 417.984 C 543.207 416.600, 547.366 413.270, 550.869 410.584 C 557.217 405.716, 566.625 397.186, 564.250 398.452 C 563.563 398.818, 563 398.641, 563 398.059 C 563 397.477, 563.701 397, 564.559 397 C 566.547 397, 575 389.129, 575 387.278 C 575 386.510, 575.355 386.102, 575.790 386.370 C 576.224 386.638, 577.461 385.541, 578.540 383.932 C 579.618 382.322, 580.837 381.004, 581.250 381.003 C 581.663 381.001, 582 380.519, 582 379.930 C 582 379.342, 583.283 376.979, 584.852 374.680 C 586.420 372.381, 587.508 369.938, 587.268 369.250 C 587.029 368.562, 587.433 367.996, 588.167 367.992 C 588.900 367.988, 590.020 366.862, 590.656 365.491 C 591.532 363.604, 591.532 363.137, 590.656 363.573 C 590.020 363.889, 590.218 363.552, 591.096 362.824 C 593.611 360.738, 596.051 355.297, 595.323 353.399 C 594.902 352.303, 595.049 351.913, 595.725 352.330 C 597.037 353.141, 598.146 350.545, 597.362 348.500 C 597.045 347.675, 597.230 347, 597.772 347 C 599.168 347, 601.343 341.337, 600.645 339.518 C 600.325 338.683, 600.410 338, 600.834 338 C 601.258 338, 602.066 335.750, 602.629 333 C 603.354 329.462, 603.339 327.996, 602.577 327.985 C 601.985 327.976, 602.113 327.581, 602.862 327.106 C 604.364 326.155, 605.746 304.332, 604.502 301.211 C 604.127 300.270, 603.641 297.112, 603.423 294.193 C 602.771 285.488, 598.033 269.346, 596.539 270.741 C 596.092 271.158, 595.950 270.825, 596.223 270 C 596.669 268.655, 592.664 259.245, 591.116 258 C 590.774 257.725, 588.807 254.918, 586.745 251.762 C 581.664 243.986, 567.190 229.035, 557.813 221.875 C 545.153 212.209, 520.236 198, 515.945 198 C 514.496 198, 512.337 192.483, 511.444 186.500 C 509.693 174.768, 510.674 164.535, 514.219 157.550 C 516.504 153.049, 523.110 144.109, 524.200 144.043 C 524.585 144.019, 526.924 142.634, 529.399 140.964 C 531.873 139.294, 536.471 137.042, 539.616 135.960 C 544.721 134.204, 545.513 134.154, 546.996 135.496 C 547.910 136.323, 549.023 137, 549.471 137 C 549.918 137, 553.134 138.800, 556.617 141 C 560.101 143.200, 563.412 145, 563.975 145 C 566.113 145, 564.842 146.774, 560.441 149.935 C 551.504 156.353, 546.132 168.011, 547.918 177.107 L 548.781 181.500 548.890 176.876 C 549.122 167.099, 553.916 159.057, 563.407 152.520 C 568.111 149.280, 569.259 148.888, 571.684 149.691 C 573.233 150.204, 576.075 150.303, 578 149.911 C 592.054 147.050, 598.127 145.668, 610 142.630 C 623.657 139.135, 636.278 134.844, 638.622 132.899 C 639.326 132.314, 640.184 129.957, 640.528 127.659 C 640.999 124.518, 642.402 122.121, 646.187 117.991 C 655.300 108.048, 659.586 95.668, 657.819 84.397 C 656.189 74.002, 644.819 54.913, 636.461 48.538 C 628.748 42.655, 615.872 40.444, 606.500 43.392 M 606 45.936 C 604.075 46.325, 601.150 47.355, 599.500 48.226 C 596.368 49.880, 591.352 54.712, 592.079 55.375 C 593.013 56.226, 615.958 69, 616.552 69 C 616.903 69, 618.426 69.879, 619.936 70.954 C 621.445 72.029, 626.464 74.788, 631.090 77.086 C 645.333 84.162, 645.010 83.784, 644.940 93.318 C 644.908 97.818, 644.529 103.638, 644.099 106.250 C 643.669 108.863, 643.583 110.997, 643.909 110.994 C 644.768 110.984, 648.131 105.206, 650.307 100 C 655.064 88.624, 649.701 69.485, 637.904 55.733 C 630.623 47.244, 618.288 43.457, 606 45.936 M 565 53.265 C 564.725 53.527, 561.350 54.027, 557.500 54.375 C 553.650 54.723, 549.150 55.188, 547.500 55.409 C 545.850 55.629, 539.426 56.381, 533.225 57.080 C 527.024 57.779, 522.074 58.699, 522.225 59.125 C 522.665 60.364, 549.288 77.556, 561.926 84.762 C 568.292 88.392, 574.573 92.180, 575.885 93.181 C 577.197 94.181, 579.897 95.011, 581.885 95.024 C 586.306 95.053, 636.988 86.716, 636.995 85.958 C 636.998 85.660, 634.638 84.213, 631.750 82.741 C 624.896 79.248, 613.380 72.932, 598.500 64.505 C 580.691 54.419, 579.109 53.747, 572 53.246 C 568.425 52.995, 565.275 53.004, 565 53.265 M 518.579 63.234 C 517.379 67.328, 514.866 85.250, 514.444 92.727 C 514.171 97.552, 513.724 102.522, 513.450 103.771 C 512.337 108.844, 514.279 110.247, 555.500 134.145 C 563.081 138.540, 572.164 143.170, 572.510 142.815 C 572.680 142.642, 573.114 138.900, 573.475 134.500 C 574.391 123.338, 575.888 110.866, 577.039 104.796 C 577.876 100.383, 577.766 99.434, 576.256 98.050 C 575.290 97.164, 564.150 90.193, 551.500 82.559 C 538.850 74.926, 526.351 67.169, 523.725 65.323 C 520.517 63.069, 518.828 62.383, 518.579 63.234 M 633 90.445 C 625.924 92.091, 612.982 94.394, 596 97.031 C 588.575 98.184, 582.190 99.436, 581.811 99.814 C 581.432 100.191, 580.419 107.925, 579.559 117 C 578.700 126.075, 577.703 136.378, 577.345 139.896 C 576.697 146.264, 576.704 146.289, 579.097 145.749 C 580.419 145.450, 588.025 143.820, 596 142.127 C 611.866 138.758, 627.413 134.690, 632.431 132.593 C 635.526 131.300, 635.700 130.908, 637.407 121.377 C 638.379 115.944, 639.569 110.243, 640.051 108.707 C 640.532 107.170, 641.226 102.108, 641.592 97.457 C 642.352 87.797, 642.804 88.166, 633 90.445 M 553.599 191 C 555.166 193.475, 557.832 197.300, 559.523 199.500 C 567.757 210.212, 574.847 218.967, 578.962 223.501 C 586.790 232.128, 595.374 242.088, 596.921 244.338 C 597.739 245.527, 598.927 246.950, 599.562 247.500 C 602.013 249.625, 613.270 266.498, 617.039 273.696 C 621.650 282.502, 626.246 295.396, 628.559 306.014 C 630.655 315.638, 630.650 333.978, 628.549 345.054 C 626.988 353.282, 621.648 369.547, 619.881 371.450 C 619.397 371.972, 619 373, 619 373.734 C 619 376.435, 599.152 407.312, 595.044 411 C 594.738 411.275, 592.031 414.425, 589.029 418 C 582.274 426.045, 568.956 439.866, 550 458.503 C 529.617 478.544, 520.017 486.995, 517.591 487.033 C 516.441 487.051, 513.222 487.853, 510.438 488.815 C 505.479 490.530, 505.343 490.524, 503.751 488.533 C 502.142 486.519, 502.132 486.522, 502.699 488.824 C 503.141 490.617, 502.339 492.100, 499.183 495.324 C 494.158 500.456, 491.896 505.661, 491.845 512.203 C 491.814 516.263, 492.354 517.874, 494.746 520.847 C 500.247 527.683, 507.573 531.077, 513.579 529.570 C 517.148 528.674, 520.828 524.436, 521.597 520.335 C 521.950 518.453, 522.523 517.050, 522.869 517.217 C 523.216 517.385, 526.567 519.531, 530.315 521.986 C 534.063 524.441, 540.813 527.819, 545.315 529.491 L 553.500 532.532 555.366 538.016 C 557.724 544.946, 557.531 553.507, 554.853 560.663 L 552.819 566.099 544.614 565.918 C 535.681 565.721, 528.281 564.606, 520.500 562.284 C 517.750 561.464, 514.631 560.624, 513.570 560.419 C 511.810 560.078, 504.273 556.455, 498 552.934 C 492.935 550.091, 480.515 536.477, 477.698 530.680 C 474.052 523.177, 471.128 511.595, 470.828 503.470 C 470.696 499.911, 470.231 497, 469.794 497 C 469.073 497, 468.450 505.100, 468.987 507.500 C 469.110 508.050, 469.614 511.642, 470.107 515.483 C 472.731 535.916, 478.849 548.025, 491.500 557.824 C 494.714 560.313, 510.471 568.116, 511.738 567.845 C 512.157 567.756, 513.400 568.021, 514.500 568.435 C 520.455 570.676, 523.129 571.242, 534 572.563 C 535.925 572.797, 539.075 573.186, 541 573.427 C 542.925 573.668, 544.950 573.897, 545.500 573.937 C 547.579 574.087, 539.761 580.209, 532.773 583.902 C 518.917 591.227, 502.213 592.067, 489.647 586.070 C 476.781 579.930, 465 565.873, 461.545 552.540 C 458.443 540.571, 459.974 525.333, 465.492 513.250 C 466.810 510.363, 467.666 508, 467.392 508 C 466.424 508, 461.055 520.585, 459.499 526.500 C 453.878 547.876, 458.531 566.155, 473.500 581.504 C 477.350 585.452, 481.963 589.314, 483.750 590.085 C 485.538 590.857, 487 591.776, 487 592.127 C 487 592.735, 490.361 594.136, 492.500 594.420 C 493.050 594.493, 493.950 594.826, 494.500 595.159 C 499.168 597.988, 522.781 597.782, 524.564 594.897 C 524.880 594.386, 525.482 594.180, 525.903 594.440 C 526.915 595.066, 536.305 591.157, 542.214 587.650 C 547.370 584.590, 557.076 574.509, 559.593 569.599 C 568.043 553.117, 563.994 535.317, 548.599 521.260 C 543.126 516.262, 530.401 508.266, 529.443 509.223 C 529.194 509.473, 531.313 510.941, 534.151 512.486 C 540.339 515.854, 550.097 525.036, 548.216 525.721 C 546.310 526.416, 532.415 519.189, 525.197 513.750 C 521.730 511.137, 518.727 509, 518.524 509 C 518.320 509, 518.839 510.375, 519.678 512.055 C 523.999 520.719, 515.620 531.155, 506.809 528.083 C 492.875 523.226, 489.955 509.318, 500.629 498.644 C 505.466 493.807, 508.794 492.642, 519 492.213 C 530.908 491.712, 539.109 493.525, 550.238 499.118 C 577.034 512.584, 590.739 530.066, 592.727 553.317 C 595.511 585.888, 581.302 608.272, 549.829 620.894 C 544.587 622.996, 543.905 623.056, 540.829 621.689 C 538.998 620.875, 533 618.164, 527.500 615.663 C 522 613.163, 514.350 609.937, 510.500 608.495 C 501.860 605.259, 499.535 605.508, 480.708 611.687 L 466.915 616.213 463.109 613.575 C 454.118 607.344, 443.609 595.433, 436.674 583.613 C 435.669 581.901, 434.121 579.938, 433.233 579.250 C 432.344 578.563, 431.936 578, 432.326 578 C 432.715 578, 431.941 575.843, 430.605 573.207 C 428.249 568.558, 425.249 559.465, 424.530 554.793 C 420.754 530.255, 424.062 509.059, 433.665 496.250 C 435.005 494.463, 435.741 493.007, 435.301 493.015 C 434.251 493.035, 431.270 494.965, 432.258 494.985 C 432.674 494.993, 431.162 497.716, 428.896 501.035 C 423.268 509.281, 419.436 518.820, 417.457 529.518 C 415.199 541.720, 415.116 541.946, 413.754 539.520 C 413.143 538.431, 412.631 533.256, 412.615 528.020 C 412.590 519.284, 412.844 518.006, 415.706 512.500 C 418.502 507.118, 423.919 500.807, 429.500 496.427 C 430.864 495.357, 430.421 495.437, 428.106 496.679 C 422.419 499.730, 415.067 507.619, 412.215 513.730 C 410.055 518.357, 409.452 521.303, 409.170 528.604 C 408.853 536.787, 409.318 539.770, 413.776 558.104 C 419.974 583.600, 420.881 589.262, 420.566 600.500 C 420.249 611.838, 417.283 618.451, 408.616 627.145 C 394.223 641.582, 371.143 647.056, 348.500 641.402 C 323.487 635.155, 310.656 628.607, 283.500 608.227 C 272.370 599.874, 272.600 600.318, 285 611.116 C 302.068 625.978, 308.869 631.058, 320.050 637.295 C 327.432 641.412, 340.227 646.929, 344 647.620 C 345.375 647.872, 347.400 648.371, 348.500 648.728 C 352.256 649.948, 353.508 650.115, 363.235 650.690 C 372.625 651.246, 380.845 650.318, 389 647.784 C 392.633 646.655, 401.126 642.875, 402 641.998 C 402.275 641.723, 403.814 640.823, 405.420 639.998 C 407.026 639.174, 410.100 636.813, 412.252 634.750 C 414.403 632.688, 416.625 631, 417.189 631 C 417.753 631, 417.946 630.302, 417.618 629.448 C 417.291 628.594, 417.413 628.137, 417.889 628.432 C 418.696 628.930, 424 621.903, 424 620.337 C 424 619.949, 425.008 617.577, 426.240 615.066 C 428.110 611.255, 428.516 608.597, 428.700 599 C 428.820 592.675, 428.939 587.050, 428.963 586.500 C 428.988 585.950, 429.963 587.075, 431.132 589 C 432.300 590.925, 434.458 593.625, 435.927 595 C 445.022 603.512, 453.007 609.929, 458.126 612.841 C 461.357 614.679, 464 616.502, 464 616.893 C 464 617.283, 461.809 618.529, 459.130 619.660 L 454.261 621.718 453.758 628.109 C 453.256 634.497, 455.126 650.784, 457.025 656.562 C 458.804 661.976, 468.076 669.566, 492 685.194 C 525.168 706.861, 524.100 706.250, 527.948 705.728 C 530.131 705.431, 540.611 699.801, 555.145 691.115 L 578.790 676.985 579.495 661.742 C 580.552 638.889, 582.142 641.842, 563.752 632.500 C 555.090 628.100, 548.003 624.197, 548.002 623.828 C 548.001 623.458, 549.688 622.616, 551.750 621.956 C 553.813 621.297, 558.650 619.125, 562.500 617.131 C 575.272 610.515, 591.759 591.327, 595.454 578.780 L 596.714 574.500 609.107 573.372 C 624.454 571.975, 628.530 571.333, 638 568.821 C 647.599 566.274, 653.726 564.303, 657.500 562.547 C 659.150 561.779, 663.200 559.946, 666.500 558.474 C 674.069 555.096, 687.309 545.950, 691.266 541.365 C 691.805 540.741, 693.539 538.782, 695.119 537.013 C 696.699 535.244, 697.697 533.280, 697.336 532.648 C 696.975 532.017, 697.036 531.822, 697.472 532.216 C 698.268 532.934, 701.996 528.924, 702.004 527.342 C 702.006 526.879, 703.153 524.250, 704.551 521.500 C 707.719 515.271, 709.760 506.897, 710.453 497.293 C 710.660 494.429, 711.017 491.729, 711.247 491.293 C 711.477 490.857, 711.528 488.025, 711.359 485 C 711.057 479.578, 711.118 455.230, 711.457 445.512 C 711.740 437.410, 711.278 436.398, 706.658 435.012 C 694.257 431.293, 693.398 430.846, 687.503 425.044 C 680.862 418.506, 669.822 412.116, 660.500 409.414 C 652.477 407.088, 637.546 407.033, 629 409.298 C 612.722 413.611, 600.464 422.994, 593.461 436.500 C 590.115 442.954, 589.468 443.617, 585.166 445 L 580.500 446.500 580.660 464.060 C 580.854 485.298, 581.659 489.004, 586.770 492.179 C 591.798 495.303, 603.996 501.131, 613.328 504.868 C 617.533 506.551, 623.456 509.103, 626.490 510.539 C 632.916 513.579, 632.785 513.603, 653.363 505.541 C 659.888 502.985, 665.476 501.143, 665.782 501.448 C 667.330 502.997, 658.028 516.097, 651.695 521.287 C 640.971 530.074, 626.407 534.818, 607.416 535.709 L 595.333 536.277 591.129 528.618 C 579.463 507.362, 552.859 489.959, 527.807 487.196 L 521.500 486.500 533.500 476.537 C 540.100 471.058, 549.550 462.923, 554.500 458.460 C 559.450 453.997, 564.722 449.299, 566.216 448.022 C 567.710 446.744, 568.696 445.316, 568.407 444.849 C 568.118 444.382, 568.513 444, 569.285 444 C 571.154 444, 600 414.534, 600 412.625 C 600 411.805, 600.801 410.881, 601.779 410.570 C 603.873 409.906, 620 389.404, 620 387.408 C 620 387.131, 621.475 384.563, 623.278 381.702 C 629.641 371.603, 634.615 357.627, 637.609 341.428 C 638.532 336.438, 638.634 320.777, 637.781 315 C 637.335 311.975, 636.787 307.624, 636.563 305.331 C 636.340 303.038, 635.671 300.255, 635.078 299.146 C 634.485 298.038, 634 296.391, 634 295.486 C 634 293.918, 630.573 284.484, 627.284 277 C 621.743 264.389, 605.149 242.212, 591.370 229 C 578.286 216.455, 565.062 202.877, 558.743 195.500 C 550.731 186.147, 550.270 185.743, 553.599 191 M 248 297.916 C 229.328 303.723, 213.608 309.094, 212.654 309.995 C 212.188 310.434, 218.038 313.960, 225.654 317.830 C 233.269 321.701, 241.798 326.112, 244.607 327.633 L 249.714 330.397 257.607 327.046 C 261.948 325.203, 273.593 320.373, 283.485 316.312 C 293.377 312.252, 301.829 308.571, 302.268 308.132 C 303.009 307.391, 300.215 305.951, 292.293 302.991 C 290.529 302.332, 288.848 301.825, 288.557 301.864 C 288.266 301.904, 284.508 300.430, 280.207 298.589 C 267.991 293.360, 262.987 293.255, 248 297.916 M 298.500 312.527 C 291.900 315.606, 270.980 324.428, 262.500 327.709 C 257.550 329.624, 252.713 331.893, 251.750 332.751 C 250.200 334.132, 250 336.472, 250 353.238 L 250 372.167 271.495 361.117 C 283.318 355.040, 295.468 348.483, 298.495 346.546 L 304 343.025 304 327.012 C 304 309.690, 304.088 309.921, 298.500 312.527 M 210.466 322.750 C 210.874 327.563, 211.535 335.637, 211.934 340.693 C 212.334 345.750, 213.225 350.566, 213.915 351.397 C 214.604 352.228, 220.418 355.905, 226.834 359.569 C 233.250 363.233, 240.412 367.514, 242.750 369.082 L 247 371.932 247.001 368.716 C 247.002 366.947, 247.197 358.503, 247.434 349.950 C 247.671 341.398, 247.558 333.973, 247.183 333.450 C 246.807 332.928, 239.750 329.182, 231.500 325.127 C 223.250 321.072, 215.306 316.910, 213.846 315.877 C 212.386 314.845, 210.861 314, 210.458 314 C 210.055 314, 210.059 317.938, 210.466 322.750 M 412.140 376.147 C 410.293 376.679, 408.968 377.301, 409.197 377.530 C 409.425 377.759, 411.317 377.475, 413.400 376.900 C 417.652 375.726, 418.878 376.238, 417.060 378.428 C 415.318 380.527, 416.661 383.773, 419.981 385.490 C 424.055 387.597, 428.723 385.849, 429.765 381.827 L 430.537 378.848 433.269 380.997 C 434.772 382.179, 437.176 385.151, 438.612 387.601 C 440.891 391.490, 441.173 392.924, 440.836 398.897 C 440.117 411.613, 431.653 420.592, 419.343 421.698 C 404.571 423.024, 395.076 414.880, 395.022 400.833 C 394.998 394.676, 397.628 387.225, 401.317 383 L 403.500 380.500 400.800 382.877 C 393.632 389.189, 391.123 404.744, 395.822 413.749 C 402.807 427.134, 425.883 428.287, 437.659 415.839 C 444.127 409.003, 446.069 397.467, 442.219 388.762 C 440.117 384.010, 434.359 378.466, 429.355 376.375 C 425.627 374.817, 417.151 374.705, 412.140 376.147 M 465.322 384.326 C 463.574 384.972, 461.801 385.848, 461.383 386.272 C 460.964 386.697, 462.564 386.360, 464.937 385.522 C 470.330 383.620, 472.913 383.487, 471.200 385.200 C 467.810 388.590, 471.683 394.370, 477.239 394.212 C 480.817 394.111, 484.266 390.856, 483.343 388.451 C 482.579 386.462, 483.674 386.631, 487.034 389.024 C 488.597 390.137, 491.091 393.531, 492.576 396.566 C 494.949 401.415, 495.198 402.829, 494.634 408.223 C 493.743 416.750, 489.360 423.123, 481.500 427.318 C 475.483 430.531, 464.077 430.376, 458 427 C 451.881 423.601, 448.875 417.575, 448.875 408.708 C 448.875 401.176, 450.769 395.957, 455.301 391.002 L 458.500 387.504 455.158 390.502 C 449.313 395.746, 447.526 400.343, 447.512 410.164 C 447.501 418.176, 447.726 419.154, 450.507 423.164 C 456.986 432.509, 471.585 435.373, 483.363 429.611 C 489.595 426.562, 493.389 422.588, 496.280 416.080 C 500.066 407.559, 497.351 395.048, 490.362 388.805 C 484.603 383.661, 472.825 381.555, 465.322 384.326 M 245.135 412.637 C 244.426 414.211, 241.248 419.550, 238.074 424.500 C 222.013 449.544, 215.611 467.513, 214.379 491 C 213.708 503.808, 215.030 511.102, 219.787 520.817 C 222.781 526.932, 234.177 539, 236.958 539 C 237.531 539, 238 539.398, 238 539.884 C 238 540.727, 245.295 544.564, 255 548.828 C 259.877 550.970, 266.735 552.980, 271.500 553.663 C 273.150 553.900, 275.752 554.504, 277.281 555.006 C 280.284 555.990, 310.888 555.632, 315 554.564 C 316.375 554.207, 321.775 553.076, 327 552.052 C 339.948 549.514, 346.805 547.069, 363.756 538.945 C 371.725 535.125, 378.380 532, 378.544 532 C 379.548 532, 380.987 544.145, 381.697 558.627 C 382.476 574.522, 379.934 581.188, 371 586.681 C 361.079 592.780, 340.469 593.669, 326.098 588.618 C 317.530 585.606, 303.676 578.381, 291.213 570.425 C 280.612 563.657, 266.158 556.608, 259.807 555.108 C 253.133 553.532, 239.706 553.737, 233.654 555.508 C 226.265 557.669, 219.873 561.651, 213.088 568.320 C 203.269 577.970, 198.524 590.157, 199.187 604.021 C 199.556 611.744, 200.076 613.768, 203.434 620.563 C 208.344 630.498, 218.140 640.693, 226.562 644.633 C 231.328 646.862, 233.827 647.391, 239.226 647.311 C 246.232 647.208, 252.789 644.562, 252.225 642.067 C 252.074 641.398, 252.392 641.125, 252.933 641.458 C 254.617 642.500, 257.241 635.873, 257.374 630.244 C 257.513 624.311, 257.623 624.450, 242.627 611.670 C 234.023 604.336, 231.811 597.280, 236.613 592.478 C 241.569 587.521, 245.969 586.917, 254.717 589.992 C 261.684 592.440, 260.498 590.926, 253.213 588.072 C 247.312 585.760, 243.494 585.483, 239.315 587.067 C 228.876 591.022, 227.442 602.842, 236.351 611.495 C 238.633 613.711, 242.279 616.998, 244.454 618.799 C 251.924 624.985, 253.380 629.039, 250.385 635.318 C 245.473 645.619, 230.304 643.534, 217.800 630.838 C 210.417 623.343, 205.346 613.017, 204.660 604.084 C 203.426 588, 214.565 570.310, 230.674 562.772 C 236.200 560.186, 238.168 559.785, 244.797 559.897 C 252.936 560.034, 254.746 560.233, 259.390 561.499 C 263.775 562.695, 276.833 569.308, 282.850 573.379 C 285.793 575.371, 288.498 577, 288.861 577 C 289.224 577, 290.734 578.125, 292.217 579.500 C 293.699 580.875, 295.270 582.010, 295.706 582.022 C 296.143 582.034, 297.625 582.924, 299 584 C 300.375 585.076, 302.140 585.966, 302.921 585.978 C 303.703 585.990, 305.053 586.639, 305.921 587.421 C 309.259 590.425, 323.039 596.298, 330 597.683 C 336.010 598.879, 337.888 599.118, 344.500 599.526 C 359.662 600.462, 375.060 595.539, 382.690 587.317 C 388.147 581.437, 389.506 576.251, 389.456 561.500 C 389.411 548.287, 388.436 537.948, 387.146 537.015 C 386.754 536.732, 386.383 535.375, 386.322 534 C 386.261 532.625, 385.964 530.066, 385.661 528.314 C 385.359 526.562, 384.657 522.512, 384.102 519.314 C 382.865 512.184, 382.433 504.747, 383.180 503.459 C 383.487 502.932, 384.318 500.700, 385.027 498.500 C 388.031 489.184, 399.984 477.361, 412.472 471.354 C 416.306 469.509, 418.781 468.004, 417.972 468.010 C 415.822 468.024, 406.711 472.427, 401.241 476.096 C 395.360 480.040, 384 490.994, 384 492.721 C 384 493.425, 383.602 494, 383.116 494 C 382.630 494, 381.168 496.587, 379.866 499.750 C 377.854 504.640, 377.539 506.921, 377.758 515 L 378.016 524.500 369.758 529.203 C 357.911 535.949, 345.690 540.289, 327 544.386 C 293.555 551.719, 268.895 549.123, 246.138 535.875 C 238.569 531.469, 228.984 522.456, 225.383 516.359 C 221.506 509.793, 219.727 499.271, 220.337 486.500 C 221.364 464.992, 226.432 448.707, 239.023 426.459 C 243.510 418.531, 247.011 411.533, 246.803 410.909 C 246.595 410.284, 245.844 411.062, 245.135 412.637 M 629.364 411.476 C 615.051 414.073, 599.703 425.322, 595.530 436.272 C 594.530 438.897, 593.934 441.268, 594.207 441.540 C 595.160 442.493, 621.517 435.833, 623.358 434.174 C 624.798 432.876, 627.159 432.505, 633.858 432.523 C 641.260 432.543, 643.325 432.948, 648.255 435.348 C 660.986 441.546, 668.981 450.618, 673.718 464.239 C 676.778 473.039, 677.172 487.657, 674.588 496.500 C 672.696 502.973, 668.205 512.465, 665.302 516.131 C 660.988 521.577, 653.835 528.016, 652.805 527.380 C 652.170 526.987, 651.969 527.141, 652.338 527.738 C 653.366 529.402, 638.393 536.516, 629 538.826 C 620.682 540.872, 612.903 541.768, 602.133 541.923 C 597.277 541.993, 596.816 542.190, 597.289 543.999 C 597.577 545.098, 597.356 546.280, 596.799 546.624 C 596.163 547.017, 596.278 547.554, 597.107 548.066 C 598.084 548.670, 598.408 551.881, 598.355 560.441 C 598.315 566.798, 598.557 571.999, 598.891 571.997 C 601.639 571.982, 619.163 568.368, 626 566.406 C 663.151 555.745, 685.022 541.913, 695.426 522.500 C 697.194 519.200, 698.723 516.050, 698.823 515.500 C 698.923 514.950, 699.726 512.330, 700.607 509.677 C 702.419 504.223, 702.717 502.207, 703.621 489.322 C 704.861 471.653, 700.750 452.498, 692.923 439.471 C 684.301 425.121, 665.818 413.158, 649.026 411.059 C 638.968 409.802, 638.535 409.811, 629.364 411.476 M 633.509 435.064 C 631.864 435.554, 629.389 436.141, 628.009 436.367 C 626.629 436.593, 624.375 437.265, 623 437.861 C 620.093 439.120, 589.506 446, 586.816 446 C 581.227 446, 588.362 450.870, 598.500 453.974 C 606.975 456.570, 616.331 459.955, 624.823 463.500 L 631.147 466.139 642.823 462.009 C 649.246 459.737, 656.862 457.127, 659.750 456.208 C 662.638 455.290, 665 454.196, 665 453.778 C 665 451.579, 651.843 440.028, 646.090 437.177 C 639.315 433.819, 638.272 433.644, 633.509 435.064 M 698.177 437.250 C 698.863 438.488, 699.341 439.803, 699.238 440.173 C 699.135 440.543, 700.499 440.430, 702.269 439.923 C 704.039 439.415, 705.602 439, 705.743 439 C 705.885 439, 706 438.640, 706 438.201 C 706 437.358, 700.213 435, 698.144 435 C 697.201 435, 697.209 435.504, 698.177 437.250 M 704.250 441.220 C 701.586 442.505, 701.508 443.148, 703.541 447.079 C 704.388 448.718, 704.812 450.496, 704.482 451.029 C 704.152 451.563, 704.290 452, 704.788 452 C 705.287 452, 706.183 453.012, 706.780 454.250 C 707.738 456.238, 707.874 455.976, 707.943 452 C 707.987 449.525, 708.301 445.813, 708.642 443.750 C 709.316 439.670, 708.473 439.184, 704.250 441.220 M 584.452 462.690 C 584.860 469.186, 585.338 475.625, 585.514 477 C 585.690 478.375, 585.871 480.903, 585.917 482.617 C 585.982 485.078, 586.789 486.244, 589.750 488.155 C 593.994 490.895, 603.628 495.373, 619 501.752 C 624.775 504.148, 630.045 506.351, 630.712 506.647 C 631.637 507.058, 631.924 502.618, 631.925 487.842 L 631.927 468.500 621.714 465.352 C 607.835 461.074, 592.689 455.561, 587.771 452.998 L 583.710 450.881 584.452 462.690 M 663.796 457.537 C 663.501 457.832, 656.890 460.244, 649.104 462.896 C 641.319 465.548, 634.730 467.936, 634.463 468.203 C 633.852 468.815, 633.765 507.098, 634.373 507.706 C 634.619 507.953, 641.723 505.450, 650.160 502.145 C 658.597 498.840, 666.259 495.905, 667.188 495.623 C 670.645 494.573, 673.117 478.279, 671.032 470.289 C 668.108 459.090, 665.985 455.348, 663.796 457.537 M 480.230 614.358 C 463.042 619.961, 457.681 622.227, 459.067 623.303 C 462.901 626.283, 477.582 634.339, 495.325 643.200 C 507.521 649.291, 519.871 655.788, 522.769 657.637 C 525.668 659.487, 528.659 661, 529.417 661 C 530.175 661, 533.879 659.124, 537.648 656.831 C 545.252 652.205, 565.856 642.024, 567.643 642.009 C 568.272 642.004, 569.045 641.325, 569.362 640.500 C 569.709 639.594, 569.366 639, 568.495 639 C 566.723 639, 557.626 634.785, 557.167 633.750 C 556.983 633.337, 556.384 633, 555.834 633 C 554.891 633, 545.995 629.299, 536 624.749 C 529.968 622.002, 521.236 617.612, 511.330 612.344 C 506.837 609.955, 502.337 608.017, 501.330 608.038 C 500.324 608.059, 490.829 610.903, 480.230 614.358 M 456.470 633.750 C 458.058 653.936, 458.579 656.278, 462.078 659 C 464.923 661.212, 476.709 669.119, 502.361 686.025 C 512.808 692.910, 528.142 702.231, 528.354 701.824 C 528.447 701.646, 528.369 693.286, 528.181 683.247 L 527.838 664.994 521.169 661.134 C 517.501 659.011, 506.175 652.882, 496 647.513 C 485.825 642.145, 473.900 635.401, 469.500 632.527 C 461.067 627.018, 457.570 625, 456.457 625 C 456.086 625, 456.092 628.938, 456.470 633.750 M 554.500 652.056 C 543.500 657.577, 533.841 662.748, 533.037 663.546 C 531.840 664.733, 531.628 668.146, 531.871 682.249 C 532.035 691.737, 532.260 699.591, 532.370 699.702 C 532.558 699.891, 536.113 697.613, 549.153 688.946 C 552.094 686.991, 558.373 683.290, 563.106 680.722 C 567.839 678.154, 572.173 675.478, 572.736 674.776 C 574.820 672.181, 577.136 641.986, 575.250 642.009 C 574.837 642.014, 565.500 646.535, 554.500 652.056" stroke="none" fill="#030303" fill-rule="evenodd" transform="matrix(1, 0, 0, 1, 56.689697, -157.795532)"/>
  <path d="M 602.611 47.941 C 597.464 50.016, 592.726 53.747, 593.548 55.078 C 594.222 56.169, 617.476 69, 618.778 69 C 619.358 69, 619.983 69.373, 620.167 69.829 C 620.350 70.285, 625.615 73.306, 631.866 76.542 C 638.118 79.778, 643.919 83.473, 644.758 84.753 C 645.976 86.613, 646.180 89.234, 645.770 97.790 L 645.258 108.500 648.193 102.500 C 650.936 96.894, 651.099 95.908, 650.667 87.500 C 650.265 79.660, 649.729 77.533, 646.510 71 C 640.598 59, 635.559 53.159, 628.111 49.672 C 619.696 45.733, 609.763 45.059, 602.611 47.941 M 538.353 137.448 C 527.854 141.249, 517.909 150.481, 514.336 159.742 C 510.893 168.664, 512.290 197, 516.172 197 C 518.145 197, 539.395 208.131, 547.397 213.357 C 568.261 226.981, 586.969 246.800, 595.787 264.620 L 599.349 271.819 601.966 264.160 C 603.434 259.860, 604.261 255.842, 603.849 255 C 603.088 253.441, 581.235 227.134, 575.607 221 C 570.343 215.264, 555.384 195.393, 551.433 188.890 C 547.531 182.466, 546.006 174.113, 547.389 166.739 C 548.303 161.870, 553.501 154.441, 559.081 150.030 L 563.832 146.275 554.070 140.783 L 544.308 135.292 538.353 137.448 M 449.768 185.725 C 451.565 185.947, 454.265 185.943, 455.768 185.715 C 457.271 185.486, 455.800 185.304, 452.500 185.310 C 449.200 185.315, 447.971 185.502, 449.768 185.725 M 431.142 196.561 C 415.414 198.966, 391.933 206.533, 385.754 211.188 C 383.563 212.838, 383.558 212.892, 385.507 213.586 C 389.011 214.834, 393.954 219.011, 395.528 222.054 C 399.839 230.391, 396.377 246.372, 387.848 257.500 C 375.401 273.742, 357.486 282.956, 345.832 279.110 C 341.970 277.835, 337 271.096, 337 267.133 C 337 263.594, 336.008 265.062, 333.206 272.750 C 322.234 302.844, 323.723 333.265, 337.515 360.816 C 342.610 370.994, 348.517 379.520, 363.968 399 C 382.143 421.914, 388.556 432.583, 390.895 443.799 C 394.315 460.200, 389.871 473.686, 376.500 487.486 C 369.981 494.214, 362.864 500, 361.106 500 C 360.498 500, 360 500.378, 360 500.841 C 360 501.630, 350.828 506.450, 343 509.775 C 337.465 512.125, 327.066 514.920, 321.034 515.678 C 314.187 516.538, 297.733 516.552, 292.929 515.700 C 286.739 514.604, 278.232 512.196, 275.821 510.859 C 274.545 510.150, 273.275 509.536, 273 509.494 C 269.251 508.914, 259.314 500.935, 255.288 495.272 C 243.754 479.050, 245.392 456.225, 260.014 429.403 L 263.883 422.307 256.758 413.551 L 249.633 404.796 248.479 408.648 C 246.998 413.594, 244.629 418.416, 238.224 429.528 C 228.349 446.659, 223.608 461.700, 221.860 481.444 C 219.828 504.391, 222.441 513.679, 234.239 525.446 C 239.938 531.130, 243.544 533.694, 251 537.363 C 275.870 549.602, 300.394 550.586, 337.957 540.854 C 350.947 537.488, 360.550 533.689, 370 528.178 L 376.500 524.386 376.601 514.943 C 376.748 501.099, 379.933 494.189, 391.164 483.349 C 407.298 467.775, 430.648 460.698, 441.971 467.949 C 444.689 469.690, 442.462 469.925, 437.961 468.373 C 423.085 463.243, 396.154 477.688, 387.476 495.450 C 383.435 503.723, 383.193 510.439, 386.378 526 C 391.822 552.600, 392.692 567.173, 389.457 577.550 C 385.958 588.770, 374.554 597.369, 360 599.760 C 352.024 601.071, 335.910 600.455, 328.500 598.556 C 319.143 596.158, 303.941 588.671, 290.500 579.840 C 279.491 572.607, 259.078 561.589, 258.240 562.427 C 257.995 562.672, 256.603 562.407, 255.147 561.838 C 253.691 561.269, 248.984 560.819, 244.686 560.838 C 238.139 560.866, 235.832 561.358, 230.462 563.871 C 221.395 568.114, 214.686 574.757, 210.199 583.935 C 206.681 591.129, 206.500 591.992, 206.500 601.547 C 206.500 611.044, 206.692 611.973, 210 618.516 C 216.355 631.086, 227.607 639.894, 238.446 640.782 C 244.688 641.294, 248.374 638.822, 250.135 632.943 C 251.734 627.606, 250.577 625.386, 242.840 618.947 C 234.938 612.370, 231.295 607.808, 229.946 602.800 C 228.550 597.616, 230.080 593.015, 234.487 589.146 C 238.399 585.711, 242.519 584.574, 247.816 585.469 C 252.342 586.234, 267.599 594.406, 267.262 595.885 C 267.131 596.459, 267.581 596.719, 268.262 596.463 C 268.943 596.206, 273.100 598.934, 277.500 602.524 C 281.900 606.113, 287.975 610.787, 291 612.909 L 296.500 616.768 296.548 612.914 C 296.606 608.180, 299.536 604.755, 304.902 603.148 C 309.906 601.648, 311.619 601.698, 317.753 603.519 C 328.659 606.758, 338.570 618.438, 339.700 629.382 C 340.068 632.946, 339.859 635.465, 339.121 636.354 C 338.166 637.504, 339.466 638.122, 346.611 639.914 C 365.234 644.585, 379.181 643.484, 394.500 636.134 C 410.750 628.338, 420.061 614.786, 419.967 599.068 C 419.918 590.929, 416.671 572.570, 412.348 556 C 409.103 543.557, 408.561 539.939, 408.533 530.500 C 408.505 521.258, 408.849 518.745, 410.683 514.775 C 415.131 505.146, 423.578 497.288, 434.830 492.312 C 440.755 489.691, 442.558 489.749, 438.469 492.429 C 434.906 494.763, 427.417 506.715, 430.844 504.597 C 432.608 503.506, 439.296 506.273, 443.012 509.630 C 450.726 516.599, 452.140 528.293, 446.333 537.078 C 443.104 541.962, 433.751 548.449, 428.524 549.429 C 426.586 549.793, 425.007 550.633, 425.015 551.295 C 425.024 551.958, 425.932 556.076, 427.033 560.447 C 431.320 577.463, 448.602 602.522, 462.867 612.408 L 466.925 615.220 480.712 610.704 C 500.474 604.232, 501.650 604.145, 512.500 608.366 C 521.950 612.042, 535.653 618.076, 540.154 620.545 C 543.892 622.594, 544.933 622.436, 553.564 618.502 C 581.815 605.628, 594.532 584.202, 591.831 554.032 C 589.693 530.157, 576.344 513.072, 549.601 499.984 C 539.208 494.898, 531.570 492.999, 521.540 493.006 C 511.494 493.013, 506.913 494.259, 502.414 498.210 C 495.358 504.405, 493.080 513.339, 496.941 519.671 C 499.855 524.450, 507.190 528.391, 511.798 527.653 C 520.049 526.333, 522.853 514.762, 516.470 508.379 C 513.103 505.012, 515.027 504.499, 523.581 506.482 C 540.555 510.419, 558.101 525.840, 563.343 541.428 C 571.288 565.055, 551.228 590.983, 519.956 597.509 C 514.082 598.735, 500.908 598.696, 496.668 597.441 C 493.202 596.414, 483.532 591.649, 483.167 590.787 C 482.983 590.354, 482.297 590, 481.642 590 C 479.872 590, 469.773 580.133, 466.544 575.250 C 463.650 570.872, 462.231 570.169, 460.264 572.136 C 458.458 573.942, 451.028 574.065, 448.383 572.331 C 444.426 569.739, 442.146 565.005, 442.567 560.256 C 443.240 552.657, 446.814 548.042, 453.250 546.459 C 455.519 545.902, 456.002 545.233, 456.013 542.642 C 456.043 535.527, 459.997 520.533, 463.841 512.957 C 466.470 507.775, 468.017 503.162, 468.489 499.095 C 469.327 491.872, 470.999 490.977, 471.001 497.750 C 471.003 504.561, 473.461 517.519, 476.070 524.474 C 481.047 537.742, 489.915 547.501, 504 555.210 C 508.301 557.564, 525.868 563.536, 526.433 562.836 C 527.689 561.276, 529.201 554.104, 529.666 547.500 C 530.308 538.363, 529.066 530.349, 525.847 522.866 L 523.617 517.682 522.559 520.591 C 520.017 527.574, 516.054 531, 510.518 531 C 504.527 531, 495.684 525.041, 492.415 518.800 C 488.942 512.171, 491.830 501.171, 498.811 494.437 C 502.729 490.657, 502.790 490.495, 501.339 487.689 C 499.349 483.840, 500.351 483.145, 503.199 486.398 L 505.500 489.027 512.815 487.290 C 519.356 485.736, 520.888 484.875, 527.315 479.144 C 540.350 467.519, 552.088 455.686, 551.287 454.978 C 549.775 453.641, 538.606 452, 531.017 452 C 511.247 452, 497.918 458.187, 492.861 469.711 C 490.173 475.834, 489.345 473.765, 491.507 466.330 C 495.881 451.282, 510.810 429.938, 523.912 420 C 525.724 418.625, 528.250 416.600, 529.525 415.500 C 530.800 414.400, 534.181 411.700, 537.039 409.500 C 547.458 401.480, 550.673 398.684, 559.836 389.677 C 573.081 376.657, 583.703 360.356, 589.471 344.201 C 594.398 330.398, 595.301 325.163, 595.284 310.500 C 595.249 280.419, 586.653 260.922, 563.626 238.689 C 555.209 230.563, 540.420 219.710, 532 215.479 C 530.075 214.512, 528.275 213.421, 528 213.054 C 526.338 210.839, 500.224 201.378, 489.500 199.106 C 486.750 198.523, 483.150 197.732, 481.500 197.347 C 476.503 196.182, 475.138 196.089, 457 195.679 C 445.819 195.426, 436.482 195.745, 431.142 196.561 M 428.662 206.549 C 414.358 211.795, 404.966 227.526, 411.043 236.061 C 413.729 239.832, 418.063 240.934, 425.965 239.853 C 436.889 238.359, 450.761 228.784, 452.597 221.471 C 453.516 217.807, 452.395 212.100, 450.293 209.738 C 446.181 205.119, 436.466 203.686, 428.662 206.549 M 201.291 320.250 C 197.014 324.928, 195.625 329.202, 195.200 339 C 194.388 357.710, 198.457 363.468, 216.249 368.787 C 220.388 370.025, 222.740 370.359, 222.331 369.652 C 220.797 367, 215.391 360.219, 211.760 356.391 C 207.483 351.885, 207.977 354.371, 205.380 324.250 C 205.083 320.813, 204.505 318, 204.095 318 C 203.684 318, 202.423 319.012, 201.291 320.250 M 410.781 375.939 C 398.986 380.549, 392.502 390.066, 392.613 402.606 C 392.665 408.527, 393.147 410.575, 395.393 414.408 C 403.664 428.521, 425.590 429.510, 438.161 416.336 C 442.939 411.330, 445.139 405.818, 445.120 398.902 C 445.100 391.158, 442.674 385.791, 436.808 380.517 C 429.320 373.785, 420.333 372.204, 410.781 375.939 M 466.994 382.934 C 455.553 386.415, 447.870 394.958, 446.432 405.801 C 444.199 422.638, 453.548 433.333, 470.500 433.333 C 476.404 433.333, 478.855 432.816, 483.331 430.627 C 500.544 422.205, 504.363 400.770, 490.870 388.312 C 485.180 383.059, 474.495 380.652, 466.994 382.934 M 629.364 412.476 C 619.543 414.258, 609.318 419.809, 602.711 426.945 C 598.342 431.665, 594.165 439.499, 595.374 440.707 C 596.185 441.519, 619.040 435.440, 622.992 433.362 C 628.693 430.364, 635.889 430.268, 644.228 433.077 C 661.461 438.882, 673.218 453.039, 676.591 472.044 C 680.836 495.974, 669.444 519.887, 647.591 532.913 C 639.134 537.954, 624.225 541.814, 610.169 542.601 C 603.751 542.961, 598.434 543.310, 598.352 543.378 C 598.271 543.445, 598.648 546.200, 599.191 549.500 C 599.733 552.800, 599.903 558.967, 599.569 563.205 L 598.961 570.910 604.230 570.307 C 611.024 569.530, 632.357 564.004, 642 560.524 C 660.261 553.933, 676.406 544.503, 685.104 535.346 C 700.072 519.589, 706.058 494.405, 701.506 466.340 C 699.009 450.943, 691.288 435.982, 681.199 426.990 C 673.309 419.958, 659.602 413.472, 649.709 412.089 C 640.322 410.777, 638.537 410.811, 629.364 412.476" stroke="none" fill="#bbc9d8" fill-rule="evenodd" transform="matrix(1, 0, 0, 1, 56.689697, -157.795532)"/>
  <path d="M 631.780 93.064 C 629.817 94.207, 628.434 98.830, 627.460 107.500 C 627.089 110.800, 626.159 116.567, 625.393 120.315 C 623.287 130.618, 623.455 132, 626.809 132 C 631.815 132, 632.878 130.269, 634.489 119.500 C 635.311 114, 636.655 106.350, 637.475 102.500 C 639.578 92.625, 639.504 91.994, 636.250 92.030 C 634.737 92.047, 632.726 92.512, 631.780 93.064 M 621 94.721 C 619.625 94.968, 618.205 95.469, 617.843 95.835 C 617.117 96.571, 613.262 121.897, 612.796 129 C 612.507 133.398, 612.572 133.507, 615.684 133.808 C 619.819 134.209, 620.499 132.868, 622.474 120.405 C 623.337 114.957, 624.713 107.202, 625.533 103.172 C 627.430 93.834, 627.300 93.591, 621 94.721 M 607 95.916 C 608.375 96.403, 608.926 96.845, 608.225 96.900 C 607.524 96.955, 606.559 98.029, 606.082 99.286 C 604.585 103.222, 600.807 136.207, 601.746 137.146 C 602.253 137.653, 603.980 137.554, 605.819 136.913 C 609.010 135.801, 609.195 135.447, 610.466 128 C 611.385 122.614, 614.049 96.716, 613.718 96.385 C 613.557 96.224, 611.417 95.853, 608.962 95.562 C 605.641 95.167, 605.139 95.258, 607 95.916 M 632.503 96.250 C 632.263 96.938, 631.364 102.675, 630.504 109 C 629.645 115.325, 628.475 122.233, 627.905 124.351 C 627.335 126.469, 627.131 128.464, 627.451 128.784 C 628.955 130.288, 630.241 126.290, 632.078 114.409 C 633.175 107.309, 634.470 100.037, 634.956 98.250 C 635.656 95.671, 635.539 95, 634.388 95 C 633.590 95, 632.742 95.563, 632.503 96.250 M 621.192 97.860 C 620.396 98.365, 619.122 104.126, 617.932 112.595 C 616.859 120.243, 615.751 127.513, 615.471 128.750 C 615.116 130.319, 615.421 131, 616.481 131 C 617.316 131, 618 130.841, 618 130.646 C 618 129.334, 622.195 103.776, 622.907 100.750 C 623.808 96.920, 623.498 96.397, 621.192 97.860 M 597.816 99.677 C 595.792 100.211, 593.557 109.205, 592.006 123.060 C 591.424 128.252, 590.725 133.224, 590.452 134.109 C 589.253 137.990, 595.900 138.949, 597.892 135.182 C 598.381 134.257, 599.334 129.225, 600.010 124 C 600.686 118.775, 601.836 111.380, 602.565 107.566 C 603.294 103.753, 603.664 100.265, 603.386 99.816 C 602.862 98.967, 600.707 98.913, 597.816 99.677 M 608.508 100.250 C 608.272 100.938, 607.364 108.025, 606.490 116 C 605.616 123.975, 604.667 131.287, 604.383 132.250 C 604.058 133.349, 604.404 134, 605.313 134 C 606.648 134, 608.449 123.026, 610.441 102.750 C 610.787 99.229, 609.451 97.501, 608.508 100.250 M 640.552 100.250 C 639.768 102.795, 638.928 110.405, 639.494 109.839 C 640.177 109.156, 641.887 99, 641.319 99 C 641.109 99, 640.764 99.563, 640.552 100.250 M 587.339 102.221 C 583.693 103.394, 583.454 104.197, 581.989 120.184 C 581.469 125.858, 580.753 132.802, 580.398 135.615 C 580.040 138.458, 580.166 140.985, 580.683 141.304 C 582.445 142.393, 586.363 139.492, 587.170 136.500 C 588.827 130.354, 593.047 102.885, 592.475 101.960 C 591.789 100.850, 591.567 100.861, 587.339 102.221 M 598.427 103.117 C 597.624 104.417, 593.067 134.234, 593.577 134.850 C 594.681 136.183, 595.837 132.866, 596.908 125.295 C 597.592 120.458, 598.614 113.433, 599.178 109.685 C 600.190 102.952, 599.931 100.684, 598.427 103.117 M 587.750 104.757 C 586.788 104.971, 586 105.505, 586 105.944 C 586 108.207, 582.883 136.673, 582.523 137.699 C 582.273 138.409, 582.693 138.671, 583.551 138.342 C 584.348 138.036, 585 136.902, 585 135.823 C 585 134.743, 585.659 130.178, 586.464 125.680 C 587.984 117.183, 589.870 104.549, 589.635 104.434 C 589.561 104.398, 588.712 104.543, 587.750 104.757 M 579.300 122 C 579.300 125.025, 579.487 126.263, 579.716 124.750 C 579.945 123.237, 579.945 120.763, 579.716 119.250 C 579.487 117.737, 579.300 118.975, 579.300 122 M 212.534 320.114 C 212.254 320.876, 212.807 328.200, 213.763 336.389 C 215.405 350.466, 215.631 351.326, 217.902 352.163 L 220.305 353.048 219.667 343.345 C 218.818 330.421, 217.163 322.458, 214.900 320.409 C 213.384 319.037, 212.948 318.983, 212.534 320.114 M 219.381 329.250 C 219.743 332.137, 220.322 338.860, 220.667 344.190 C 221.281 353.663, 221.359 353.906, 224.147 355.061 C 227.521 356.459, 227.997 358.405, 224.750 357.526 C 222.536 356.926, 222.537 356.939, 224.855 358.300 C 226.150 359.060, 228.355 359.464, 229.754 359.196 L 232.298 358.710 231.659 344.605 C 231.139 333.129, 230.711 330.273, 229.363 329.282 C 228.451 328.612, 227.305 328.311, 226.817 328.613 C 226.328 328.915, 226.115 334.188, 226.343 340.331 C 226.571 346.474, 226.581 349.700, 226.366 347.500 C 224.753 331, 223.953 326.683, 222.271 325.407 C 219.238 323.106, 218.699 323.822, 219.381 329.250 M 215.173 329 C 215.141 330.375, 215.488 333.300, 215.943 335.500 C 216.473 338.066, 216.791 338.604, 216.827 337 C 216.859 335.625, 216.512 332.700, 216.057 330.500 C 215.527 327.934, 215.209 327.396, 215.173 329 M 233 344.943 C 233 359.225, 233.098 359.955, 235.209 361.434 C 236.556 362.377, 237.778 362.622, 238.340 362.060 C 238.857 361.543, 239.065 355.010, 238.814 347.143 C 238.366 333.103, 237.563 330, 234.378 330 C 233.269 330, 233 332.917, 233 344.943 M 235.240 338 C 235.217 341.025, 235.534 347.325, 235.944 352 L 236.690 360.500 236.746 352 C 236.777 347.325, 236.460 341.025, 236.042 338 L 235.282 332.500 235.240 338 M 240 347.889 C 240 361.066, 240.220 363.050, 241.914 365.139 C 242.967 366.438, 244.128 367.201, 244.496 366.835 C 244.863 366.469, 245.202 359.117, 245.248 350.497 C 245.316 337.996, 245.046 334.642, 243.916 333.927 C 240.278 331.624, 240 332.614, 240 347.889 M 247.310 339.500 C 247.315 342.800, 247.502 344.029, 247.725 342.232 C 247.947 340.435, 247.943 337.735, 247.715 336.232 C 247.486 334.729, 247.304 336.200, 247.310 339.500 M 229.343 349.500 C 229.346 353.900, 229.522 355.576, 229.733 353.224 C 229.945 350.872, 229.942 347.272, 229.727 345.224 C 229.512 343.176, 229.339 345.100, 229.343 349.500 M 585.999 457.750 C 585.999 458.712, 586.542 465.208, 587.207 472.184 C 588.327 483.943, 588.586 484.946, 590.755 485.934 C 592.041 486.520, 593.523 487, 594.047 487 C 595.365 487, 595.253 475.074, 593.847 465.838 C 592.854 459.313, 592.326 458.014, 590.293 457.088 C 586.970 455.574, 586 455.723, 585.999 457.750 M 589.590 468 C 590.026 473.225, 590.317 478.698, 590.238 480.161 C 590.157 481.674, 590.721 483.063, 591.547 483.380 C 593.371 484.080, 593.474 479.374, 591.878 468.291 C 590.211 456.716, 588.634 456.515, 589.590 468 M 595.435 460.105 C 595.099 460.648, 595.082 463.209, 595.396 465.796 C 595.709 468.383, 596.249 474.537, 596.595 479.472 C 597.249 488.801, 598.303 490.899, 602.370 490.968 C 604.129 490.998, 604.200 490.305, 603.574 479.250 C 603.207 472.788, 602.691 466.375, 602.428 465 C 601.903 462.267, 596.456 458.454, 595.435 460.105 M 605.268 476.878 C 605.889 493.045, 606.477 495, 610.716 495 L 613.187 495 612.554 485.250 C 611.393 467.370, 611.138 466.234, 607.748 463.820 L 604.682 461.638 605.268 476.878 M 598.693 473.597 C 599.023 479.594, 599.688 485.400, 600.171 486.500 C 600.706 487.718, 600.855 483.838, 600.552 476.577 C 600.279 470.020, 599.614 464.214, 599.075 463.675 C 598.435 463.035, 598.303 466.477, 598.693 473.597 M 607.707 478.648 C 608.042 486.116, 608.735 491.791, 609.363 492.196 C 609.956 492.578, 610.496 492.803, 610.561 492.696 C 610.980 492.007, 608.358 467.025, 607.810 466.476 C 607.436 466.103, 607.390 471.580, 607.707 478.648 M 613.960 467.025 C 612.988 467.626, 612.858 470.977, 613.395 481.652 C 614.143 496.546, 614.715 498, 619.820 498 C 622.148 498, 622.230 497.786, 621.642 493.250 C 621.303 490.637, 620.763 484.225, 620.442 479 C 620.120 473.775, 619.702 469, 619.513 468.389 C 619.056 466.910, 615.542 466.047, 613.960 467.025 M 629.708 468.798 C 630.459 469.276, 631.043 472.954, 631.252 478.533 L 631.589 487.500 631.794 477.750 C 631.978 469.048, 631.812 468.002, 630.250 468.015 C 629.052 468.026, 628.881 468.273, 629.708 468.798 M 615.407 469.850 C 615.696 470.317, 615.993 475.944, 616.068 482.354 C 616.186 492.452, 616.969 496.365, 618.555 494.779 C 618.787 494.547, 618.687 488.652, 618.334 481.678 C 617.831 471.763, 617.385 469, 616.287 469 C 615.514 469, 615.118 469.382, 615.407 469.850 M 622.734 484.250 C 623.331 499.851, 623.909 501.873, 627.800 501.968 C 629.868 502.019, 628.346 471.955, 626.195 470.250 C 622.410 467.250, 622.127 468.392, 622.734 484.250 M 625.150 484.691 C 625.067 491.946, 625.343 498.094, 625.763 498.353 C 626.182 498.613, 626.390 493.802, 626.224 487.662 C 625.775 471.059, 625.319 469.797, 625.150 484.691 M 630.821 498.002 C 630.644 502.954, 630.837 507.004, 631.250 507.002 C 631.663 507.001, 632 502.950, 632 498 C 632 493.050, 631.807 489, 631.571 489 C 631.335 489, 630.998 493.051, 630.821 498.002 M 575.336 651 C 575.336 655.125, 575.513 656.813, 575.728 654.750 C 575.944 652.688, 575.944 649.313, 575.728 647.250 C 575.513 645.188, 575.336 646.875, 575.336 651 M 568.750 647.392 C 567.240 648.539, 567 650.519, 567 661.860 C 567 669.087, 567.364 675, 567.809 675 C 568.254 675, 569.327 674.438, 570.193 673.750 C 571.430 672.769, 571.886 669.650, 572.312 659.250 C 572.878 645.428, 572.592 644.476, 568.750 647.392 M 561.729 648.092 C 560.755 648.659, 560.200 649.514, 560.495 649.992 C 560.791 650.471, 560.575 651.144, 560.016 651.490 C 558.799 652.242, 558.645 676.892, 559.845 678.784 C 560.333 679.552, 561.397 679.785, 562.494 679.364 C 563.860 678.840, 564.119 678.998, 563.510 679.985 C 562.949 680.892, 563.076 681.071, 563.912 680.554 C 564.584 680.139, 564.882 679.549, 564.575 679.242 C 564.268 678.935, 564.435 678.181, 564.946 677.565 C 565.481 676.920, 565.625 670.848, 565.286 663.223 C 564.727 650.661, 564.593 649.998, 562.599 649.965 C 560.646 649.932, 560.673 649.830, 563 648.500 C 564.375 647.714, 565.050 647.069, 564.500 647.066 C 563.950 647.063, 562.703 647.525, 561.729 648.092 M 569.168 660.750 C 569.342 672.925, 569.764 671.534, 570.231 657.248 C 570.379 652.709, 570.163 648.996, 569.750 648.998 C 569.337 648.999, 569.076 654.288, 569.168 660.750 M 561.846 652.500 C 561.487 653.050, 561.487 658.900, 561.846 665.500 C 562.206 672.100, 562.725 677.050, 563 676.500 C 563.745 675.010, 562.607 651.336, 561.846 652.500 M 552.750 655.080 C 551.323 655.911, 550.963 657.706, 550.799 664.800 L 550.598 673.500 550.257 665.750 C 549.894 657.497, 549.257 656.722, 544.799 659.108 C 542.809 660.172, 542.757 660.720, 543.444 673.347 C 543.889 681.544, 544.595 686.750, 545.323 687.200 C 547.154 688.332, 550.447 685.550, 551.027 682.381 C 551.455 680.044, 551.688 679.837, 552.259 681.285 C 552.920 682.958, 553.121 682.967, 555.482 681.420 C 557.957 679.798, 558 679.550, 558 666.885 C 558 655.269, 557.828 654.003, 556.250 654.030 C 555.288 654.047, 553.712 654.519, 552.750 655.080 M 554.667 656.667 C 553.612 657.721, 553.882 679, 554.949 679 C 555.637 679, 556.103 656.059, 555.417 656.006 C 555.371 656.003, 555.033 656.300, 554.667 656.667 M 546.058 669.250 C 546.118 677.838, 547.202 686.230, 548.028 684.500 C 548.898 682.676, 547.893 661, 546.938 661 C 546.422 661, 546.026 664.712, 546.058 669.250 M 536.896 663.285 C 534.564 665.062, 533.700 674.456, 534.978 684.157 C 536.494 695.674, 536.422 695.548, 540.052 692.963 C 542.510 691.213, 543.007 690.265, 542.580 688.142 C 542.287 686.689, 541.925 680.214, 541.774 673.752 C 541.486 661.409, 540.929 660.213, 536.896 663.285 M 537.750 665.578 C 537.337 665.993, 537.033 669.971, 537.074 674.417 C 537.163 684.151, 538.357 692.203, 539.374 689.930 C 540.287 687.887, 538.734 664.587, 537.750 665.578" stroke="none" fill="#0c5581" fill-rule="evenodd" transform="matrix(1, 0, 0, 1, 56.689697, -157.795532)"/>
  <path d="M 637.500 90.265 C 635.300 90.756, 628.100 92.206, 621.500 93.487 C 614.900 94.768, 610.555 95.857, 611.844 95.908 C 614.045 95.994, 614.153 96.289, 613.616 100.750 C 613.301 103.362, 612.787 108.200, 612.472 111.500 C 611.863 117.891, 610.205 130.087, 609.461 133.650 C 608.964 136.030, 603.226 138.626, 601.742 137.142 C 601.230 136.630, 601.750 129.158, 602.979 119.379 C 605.491 99.393, 605.733 98.282, 607.862 96.946 C 609.039 96.206, 607.953 96.097, 604 96.556 C 596.570 97.419, 582.890 99.777, 582.384 100.282 C 582.160 100.507, 581.492 105.598, 580.900 111.595 C 580.308 117.593, 579.257 127.450, 578.563 133.500 C 577.870 139.550, 577.474 144.702, 577.683 144.948 C 577.892 145.195, 579.961 144.848, 582.282 144.179 C 584.602 143.509, 588.075 142.727, 590 142.441 C 593.853 141.868, 603.603 139.833, 611.750 137.901 C 614.638 137.217, 617 136.326, 617 135.922 C 617 135.518, 617.895 135.421, 618.988 135.707 C 620.276 136.044, 621.205 135.629, 621.627 134.530 C 622.145 133.180, 622.452 133.106, 623.124 134.166 C 623.808 135.246, 623.972 135.251, 623.985 134.191 C 623.993 133.471, 624.453 133.162, 625.006 133.504 C 626.017 134.129, 632.530 132.281, 634.622 130.775 C 635.239 130.331, 635.982 128.063, 636.274 125.734 C 636.566 123.405, 637.996 114.593, 639.453 106.152 C 640.909 97.710, 641.966 90.481, 641.801 90.087 C 641.635 89.694, 639.700 89.774, 637.500 90.265 M 631.780 93.064 C 629.817 94.207, 628.434 98.830, 627.460 107.500 C 627.089 110.800, 626.159 116.567, 625.393 120.315 C 623.287 130.618, 623.455 132, 626.809 132 C 631.815 132, 632.878 130.269, 634.489 119.500 C 635.311 114, 636.655 106.350, 637.475 102.500 C 639.578 92.625, 639.504 91.994, 636.250 92.030 C 634.737 92.047, 632.726 92.512, 631.780 93.064 M 621 94.721 C 619.625 94.968, 618.205 95.469, 617.843 95.835 C 617.117 96.571, 613.262 121.897, 612.796 129 C 612.507 133.398, 612.572 133.507, 615.684 133.808 C 619.819 134.209, 620.499 132.868, 622.474 120.405 C 623.337 114.957, 624.713 107.202, 625.533 103.172 C 627.430 93.834, 627.300 93.591, 621 94.721 M 632.503 96.250 C 632.263 96.938, 631.364 102.675, 630.504 109 C 629.645 115.325, 628.475 122.233, 627.905 124.351 C 627.335 126.469, 627.131 128.464, 627.451 128.784 C 628.955 130.288, 630.241 126.290, 632.078 114.409 C 633.175 107.309, 634.470 100.037, 634.956 98.250 C 635.656 95.671, 635.539 95, 634.388 95 C 633.590 95, 632.742 95.563, 632.503 96.250 M 621.192 97.860 C 620.396 98.365, 619.122 104.126, 617.932 112.595 C 616.859 120.243, 615.751 127.513, 615.471 128.750 C 615.116 130.319, 615.421 131, 616.481 131 C 617.316 131, 618 130.841, 618 130.646 C 618 129.334, 622.195 103.776, 622.907 100.750 C 623.808 96.920, 623.498 96.397, 621.192 97.860 M 597.816 99.677 C 595.792 100.211, 593.557 109.205, 592.006 123.060 C 591.424 128.252, 590.725 133.224, 590.452 134.109 C 589.253 137.990, 595.900 138.949, 597.892 135.182 C 598.381 134.257, 599.334 129.225, 600.010 124 C 600.686 118.775, 601.836 111.380, 602.565 107.566 C 603.294 103.753, 603.664 100.265, 603.386 99.816 C 602.862 98.967, 600.707 98.913, 597.816 99.677 M 608.508 100.250 C 608.272 100.938, 607.364 108.025, 606.490 116 C 605.616 123.975, 604.667 131.287, 604.383 132.250 C 604.058 133.349, 604.404 134, 605.313 134 C 606.648 134, 608.449 123.026, 610.441 102.750 C 610.787 99.229, 609.451 97.501, 608.508 100.250 M 587.339 102.221 C 583.693 103.394, 583.454 104.197, 581.989 120.184 C 581.469 125.858, 580.753 132.802, 580.398 135.615 C 580.040 138.458, 580.166 140.985, 580.683 141.304 C 582.445 142.393, 586.363 139.492, 587.170 136.500 C 588.827 130.354, 593.047 102.885, 592.475 101.960 C 591.789 100.850, 591.567 100.861, 587.339 102.221 M 598.427 103.117 C 597.624 104.417, 593.067 134.234, 593.577 134.850 C 594.681 136.183, 595.837 132.866, 596.908 125.295 C 597.592 120.458, 598.614 113.433, 599.178 109.685 C 600.190 102.952, 599.931 100.684, 598.427 103.117 M 587.750 104.757 C 586.788 104.971, 586 105.505, 586 105.944 C 586 108.207, 582.883 136.673, 582.523 137.699 C 582.273 138.409, 582.693 138.671, 583.551 138.342 C 584.348 138.036, 585 136.902, 585 135.823 C 585 134.743, 585.659 130.178, 586.464 125.680 C 587.984 117.183, 589.870 104.549, 589.635 104.434 C 589.561 104.398, 588.712 104.543, 587.750 104.757 M 210.255 316.001 C 210.584 317.375, 211.410 325.475, 212.092 334 C 213.289 348.965, 213.429 349.590, 216.133 352.120 C 217.674 353.562, 220.530 355.498, 222.480 356.424 C 225.736 357.968, 237.631 365.071, 244.250 369.422 L 247 371.230 246.996 352.365 L 246.991 333.500 231.746 326.065 C 223.361 321.976, 214.961 317.477, 213.079 316.066 L 209.658 313.502 210.255 316.001 M 303.343 321.500 C 303.346 325.900, 303.522 327.576, 303.733 325.224 C 303.945 322.872, 303.942 319.272, 303.727 317.224 C 303.512 315.176, 303.339 317.100, 303.343 321.500 M 212.534 320.114 C 212.254 320.876, 212.807 328.200, 213.763 336.389 C 215.405 350.466, 215.631 351.326, 217.902 352.163 L 220.305 353.048 219.667 343.345 C 218.818 330.421, 217.163 322.458, 214.900 320.409 C 213.384 319.037, 212.948 318.983, 212.534 320.114 M 219.381 329.250 C 219.743 332.137, 220.322 338.860, 220.667 344.190 C 221.277 353.599, 221.375 353.913, 224.076 355.031 C 225.605 355.665, 227.100 356.817, 227.397 357.592 C 227.694 358.366, 228.921 359, 230.124 359 C 232.301 359, 232.308 358.936, 231.666 344.750 C 231.140 333.144, 230.713 330.274, 229.363 329.282 C 228.451 328.612, 227.305 328.311, 226.817 328.613 C 226.328 328.915, 226.115 334.188, 226.343 340.331 C 226.571 346.474, 226.581 349.700, 226.366 347.500 C 224.753 331, 223.953 326.683, 222.271 325.407 C 219.238 323.106, 218.699 323.822, 219.381 329.250 M 215.173 329 C 215.141 330.375, 215.488 333.300, 215.943 335.500 C 216.473 338.066, 216.791 338.604, 216.827 337 C 216.859 335.625, 216.512 332.700, 216.057 330.500 C 215.527 327.934, 215.209 327.396, 215.173 329 M 233 344.943 C 233 359.225, 233.098 359.955, 235.209 361.434 C 236.556 362.377, 237.778 362.622, 238.340 362.060 C 238.857 361.543, 239.065 355.010, 238.814 347.143 C 238.366 333.103, 237.563 330, 234.378 330 C 233.269 330, 233 332.917, 233 344.943 M 235.240 338 C 235.217 341.025, 235.534 347.325, 235.944 352 L 236.690 360.500 236.746 352 C 236.777 347.325, 236.460 341.025, 236.042 338 L 235.282 332.500 235.240 338 M 240 347.889 C 240 361.066, 240.220 363.050, 241.914 365.139 C 242.967 366.438, 244.128 367.201, 244.496 366.835 C 244.863 366.469, 245.202 359.117, 245.248 350.497 C 245.316 337.996, 245.046 334.642, 243.916 333.927 C 240.278 331.624, 240 332.614, 240 347.889 M 229.343 349.500 C 229.346 353.900, 229.522 355.576, 229.733 353.224 C 229.945 350.872, 229.942 347.272, 229.727 345.224 C 229.512 343.176, 229.339 345.100, 229.343 349.500 M 584.448 457.183 C 584.783 460.107, 585.486 467.667, 586.010 473.982 C 586.841 484.003, 587.241 485.673, 589.152 487.114 C 591.852 489.151, 603.533 494.664, 615.500 499.549 C 620.450 501.570, 625.807 503.848, 627.404 504.612 C 629.001 505.375, 630.463 506, 630.654 506 C 630.844 506, 631 497.698, 631 487.550 L 631 469.100 618.750 465.100 C 603.002 459.956, 591.026 455.582, 587.015 453.508 L 583.839 451.866 584.448 457.183 M 585.999 457.750 C 585.999 458.712, 586.542 465.208, 587.207 472.184 C 588.327 483.943, 588.586 484.946, 590.755 485.934 C 592.041 486.520, 593.523 487, 594.047 487 C 595.365 487, 595.253 475.074, 593.847 465.838 C 592.854 459.313, 592.326 458.014, 590.293 457.088 C 586.970 455.574, 586 455.723, 585.999 457.750 M 589.590 468 C 590.026 473.225, 590.317 478.698, 590.238 480.161 C 590.157 481.674, 590.721 483.063, 591.547 483.380 C 593.371 484.080, 593.474 479.374, 591.878 468.291 C 590.211 456.716, 588.634 456.515, 589.590 468 M 595.435 460.105 C 595.099 460.648, 595.082 463.209, 595.396 465.796 C 595.709 468.383, 596.249 474.537, 596.595 479.472 C 597.249 488.801, 598.303 490.899, 602.370 490.968 C 604.129 490.998, 604.200 490.305, 603.574 479.250 C 603.207 472.788, 602.691 466.375, 602.428 465 C 601.903 462.267, 596.456 458.454, 595.435 460.105 M 605.268 476.878 C 605.889 493.045, 606.477 495, 610.716 495 L 613.187 495 612.554 485.250 C 611.393 467.370, 611.138 466.234, 607.748 463.820 L 604.682 461.638 605.268 476.878 M 598.693 473.597 C 599.023 479.594, 599.688 485.400, 600.171 486.500 C 600.706 487.718, 600.855 483.838, 600.552 476.577 C 600.279 470.020, 599.614 464.214, 599.075 463.675 C 598.435 463.035, 598.303 466.477, 598.693 473.597 M 607.707 478.648 C 608.042 486.116, 608.735 491.791, 609.363 492.196 C 609.956 492.578, 610.496 492.803, 610.561 492.696 C 610.980 492.007, 608.358 467.025, 607.810 466.476 C 607.436 466.103, 607.390 471.580, 607.707 478.648 M 613.960 467.025 C 612.988 467.626, 612.858 470.977, 613.395 481.652 C 614.143 496.546, 614.715 498, 619.820 498 C 622.148 498, 622.230 497.786, 621.642 493.250 C 621.303 490.637, 620.763 484.225, 620.442 479 C 620.120 473.775, 619.702 469, 619.513 468.389 C 619.056 466.910, 615.542 466.047, 613.960 467.025 M 615.407 469.850 C 615.696 470.317, 615.993 475.944, 616.068 482.354 C 616.186 492.452, 616.969 496.365, 618.555 494.779 C 618.787 494.547, 618.687 488.652, 618.334 481.678 C 617.831 471.763, 617.385 469, 616.287 469 C 615.514 469, 615.118 469.382, 615.407 469.850 M 622.734 484.250 C 623.331 499.851, 623.909 501.873, 627.800 501.968 C 629.868 502.019, 628.346 471.955, 626.195 470.250 C 622.410 467.250, 622.127 468.392, 622.734 484.250 M 625.150 484.691 C 625.067 491.946, 625.343 498.094, 625.763 498.353 C 626.182 498.613, 626.390 493.802, 626.224 487.662 C 625.775 471.059, 625.319 469.797, 625.150 484.691 M 634.136 500.191 C 634.061 503.871, 634.337 507.091, 634.750 507.347 C 635.163 507.603, 635.370 505.492, 635.211 502.656 C 634.734 494.132, 634.281 493.093, 634.136 500.191 M 553 653.427 L 532.500 663.767 532.500 681.275 L 532.500 698.783 536.116 696.939 C 538.106 695.925, 541.031 694.049, 542.616 692.770 C 547.014 689.223, 552.643 685.725, 562.106 680.659 C 566.839 678.126, 571.164 675.478, 571.718 674.776 C 573.336 672.724, 573.927 669.008, 574.562 656.896 C 574.891 650.628, 575.335 644.938, 575.549 644.250 C 575.762 643.563, 575.389 643.020, 574.719 643.044 C 574.048 643.068, 564.275 647.740, 553 653.427 M 568.750 647.392 C 567.240 648.539, 567 650.519, 567 661.860 C 567 669.087, 567.364 675, 567.809 675 C 568.254 675, 569.327 674.438, 570.193 673.750 C 571.430 672.769, 571.886 669.650, 572.312 659.250 C 572.878 645.428, 572.592 644.476, 568.750 647.392 M 569.168 660.750 C 569.342 672.925, 569.764 671.534, 570.231 657.248 C 570.379 652.709, 570.163 648.996, 569.750 648.998 C 569.337 648.999, 569.076 654.288, 569.168 660.750 M 560.200 651.200 C 558.767 652.633, 558.532 676.712, 559.930 678.921 C 560.693 680.126, 561.242 680.071, 563.546 678.562 C 566.144 676.859, 566.235 676.520, 565.631 670.744 C 565.284 667.424, 565 661.398, 565 657.353 C 565 650.939, 564.770 650, 563.200 650 C 562.210 650, 560.860 650.540, 560.200 651.200 M 561.846 652.500 C 561.487 653.050, 561.487 658.900, 561.846 665.500 C 562.206 672.100, 562.725 677.050, 563 676.500 C 563.745 675.010, 562.607 651.336, 561.846 652.500 M 552.750 655.080 C 551.323 655.911, 550.963 657.706, 550.799 664.800 L 550.598 673.500 550.257 665.750 C 549.894 657.497, 549.257 656.722, 544.799 659.108 C 542.809 660.172, 542.757 660.720, 543.444 673.347 C 543.889 681.544, 544.595 686.750, 545.323 687.200 C 547.154 688.332, 550.447 685.550, 551.027 682.381 C 551.455 680.044, 551.688 679.837, 552.259 681.285 C 552.920 682.958, 553.121 682.967, 555.482 681.420 C 557.957 679.798, 558 679.550, 558 666.885 C 558 655.269, 557.828 654.003, 556.250 654.030 C 555.288 654.047, 553.712 654.519, 552.750 655.080 M 554.667 656.667 C 553.612 657.721, 553.882 679, 554.949 679 C 555.637 679, 556.103 656.059, 555.417 656.006 C 555.371 656.003, 555.033 656.300, 554.667 656.667 M 546.058 669.250 C 546.118 677.838, 547.202 686.230, 548.028 684.500 C 548.898 682.676, 547.893 661, 546.938 661 C 546.422 661, 546.026 664.712, 546.058 669.250 M 536.896 663.285 C 534.564 665.062, 533.700 674.456, 534.978 684.157 C 536.494 695.674, 536.422 695.548, 540.052 692.963 C 542.510 691.213, 543.007 690.265, 542.580 688.142 C 542.287 686.689, 541.925 680.214, 541.774 673.752 C 541.486 661.409, 540.929 660.213, 536.896 663.285 M 537.750 665.578 C 537.337 665.993, 537.033 669.971, 537.074 674.417 C 537.163 684.151, 538.357 692.203, 539.374 689.930 C 540.287 687.887, 538.734 664.587, 537.750 665.578" stroke="none" fill="#105f8a" fill-rule="evenodd" transform="matrix(1, 0, 0, 1, 56.689697, -157.795532)"/>
  <path d="M 519 63.333 C 519 63.569, 518.146 69.553, 517.103 76.631 C 516.059 83.709, 514.901 93.649, 514.530 98.719 L 513.855 107.939 518.465 111.219 C 523.106 114.522, 525.168 115.766, 548 129.030 C 565.219 139.034, 570.651 142, 571.755 142 C 572.275 142, 572.961 137.162, 573.278 131.250 C 573.596 125.338, 574.610 115.794, 575.530 110.042 C 577.200 99.614, 577.198 99.579, 575.086 97.869 C 573.922 96.926, 562.738 89.964, 550.234 82.399 C 537.730 74.834, 525.587 67.353, 523.250 65.774 C 520.913 64.196, 519 63.097, 519 63.333 M 299 312.986 C 273.442 323.897, 258.884 329.946, 255.830 330.925 C 253.811 331.573, 251.720 332.642, 251.182 333.301 C 250.480 334.162, 249.855 371, 250.543 371 C 251.241 371, 278.547 357.107, 287.175 352.362 C 304.833 342.652, 303.312 345.059, 303.414 326.658 C 303.461 318.047, 303.500 311.015, 303.500 311.033 C 303.500 311.051, 301.475 311.930, 299 312.986 M 705.500 441.210 C 704.400 441.807, 703.350 442.416, 703.166 442.565 C 702.982 442.713, 703.882 445.684, 705.166 449.167 L 707.500 455.500 707.809 451.224 C 707.979 448.872, 707.979 445.412, 707.809 443.536 C 707.530 440.460, 707.303 440.231, 705.500 441.210 M 658.500 460.141 C 654.650 461.693, 647.830 464.110, 643.344 465.513 L 635.189 468.063 634.778 473.282 C 634.295 479.420, 634.741 506.075, 635.338 506.671 C 636.231 507.564, 668.362 494.104, 669.288 492.449 C 669.827 491.486, 670.489 486.823, 670.759 482.086 C 671.148 475.269, 670.814 471.931, 669.154 466.066 C 668.001 461.991, 666.707 458.356, 666.279 457.989 C 665.850 457.621, 662.350 458.590, 658.500 460.141 M 457 629.826 C 457 631.931, 457.483 638.568, 458.074 644.576 C 458.961 653.609, 459.524 655.871, 461.324 657.641 C 464.449 660.715, 513.264 692.791, 523.103 698.235 L 528.046 700.970 527.773 683.258 L 527.500 665.546 521.500 661.949 C 518.200 659.971, 507.625 654.290, 498 649.324 C 488.375 644.358, 475.574 637.078, 469.553 633.147 C 463.532 629.216, 458.244 626, 457.803 626 C 457.361 626, 457 627.722, 457 629.826" stroke="none" fill="#2ab7ff" fill-rule="evenodd" transform="matrix(1, 0, 0, 1, 56.689697, -157.795532)"/>
  <path d="M 548 56.065 C 540.025 57.102, 531.025 58.240, 528 58.594 C 523.354 59.138, 522.787 59.414, 524.345 60.369 C 525.360 60.991, 531.172 64.812, 537.261 68.860 C 547.558 75.707, 569.850 89.005, 578.074 93.208 C 581.621 95.021, 581.826 95.005, 605.574 91.004 C 639.347 85.314, 636.367 86.367, 629.391 82.590 C 613.231 73.841, 608.362 71.128, 594.500 63.154 L 579.500 54.524 571 54.352 C 566.325 54.257, 555.975 55.028, 548 56.065 M 257 295.925 C 255.625 296.395, 245.129 299.811, 233.675 303.517 L 212.850 310.255 219.675 313.935 C 223.429 315.959, 231.723 320.348, 238.106 323.689 L 249.712 329.762 264.106 323.578 C 272.023 320.177, 283.562 315.393, 289.748 312.947 C 295.934 310.501, 300.997 308.263, 300.998 307.972 C 300.999 307.682, 296.837 305.924, 291.750 304.065 C 286.663 302.207, 282.050 300.378, 281.500 300.001 C 276.511 296.585, 262.095 294.187, 257 295.925 M 631 436.564 C 627.975 437.311, 621 439.063, 615.500 440.457 C 610 441.852, 601 444.049, 595.500 445.339 L 585.500 447.686 589.500 449.729 C 591.700 450.852, 598.225 453.225, 604 455.001 C 609.775 456.777, 616.525 459.253, 619 460.503 C 627.869 464.981, 630.862 465.407, 637.518 463.140 C 651.923 458.234, 663.139 454.194, 663.579 453.754 C 664.822 452.511, 654.069 442.552, 647.627 438.979 C 639.854 434.668, 639.110 434.560, 631 436.564 M 699.232 438 C 700.608 440.204, 700.641 440.212, 703.500 439.040 C 705.358 438.278, 705.301 438.142, 702.685 437.110 C 698.642 435.516, 697.814 435.729, 699.232 438 M 480.832 614.876 C 470.014 618.521, 460.852 621.814, 460.472 622.194 C 459.310 623.357, 470.365 629.801, 494.984 642.309 C 507.918 648.880, 520.564 655.549, 523.088 657.128 C 525.611 658.708, 528.477 660, 529.457 660 C 530.437 660, 533.772 658.476, 536.869 656.614 C 544.365 652.107, 558.414 644.847, 564 642.594 L 568.500 640.779 562.500 637.837 C 559.200 636.220, 550.425 632.175, 543 628.848 C 528.084 622.166, 516.372 616.291, 508 611.290 C 504.975 609.483, 502.050 608.060, 501.500 608.127 C 500.950 608.194, 491.649 611.231, 480.832 614.876" stroke="none" fill="#74d1fe" fill-rule="evenodd" transform="matrix(1, 0, 0, 1, 56.689697, -157.795532)"/>
</svg>